<svg width="64" height="64" viewBox="0 0 64 64" fill="none" xmlns="http://www.w3.org/2000/svg">
<circle opacity="0.2" cx="32" cy="32" r="31.5" stroke="#00B4A4"/>
<circle opacity="0.4" cx="32.0002" cy="32" r="24.3889" stroke="#00B4A4"/>
<g clip-path="url(#clip0_1661_7999)">
<path d="M31.9993 45.3334C24.6353 45.3334 18.666 39.3641 18.666 32.0001C18.666 24.6361 24.6353 18.6667 31.9993 18.6667C39.3633 18.6667 45.3327 24.6361 45.3327 32.0001C45.3327 39.3641 39.3633 45.3334 31.9993 45.3334ZM31.9993 42.6667C34.8283 42.6667 37.5414 41.5429 39.5418 39.5426C41.5422 37.5422 42.666 34.8291 42.666 32.0001C42.666 29.1711 41.5422 26.458 39.5418 24.4576C37.5414 22.4572 34.8283 21.3334 31.9993 21.3334C29.1704 21.3334 26.4573 22.4572 24.4569 24.4576C22.4565 26.458 21.3327 29.1711 21.3327 32.0001C21.3327 34.8291 22.4565 37.5422 24.4569 39.5426C26.4573 41.5429 29.1704 42.6667 31.9993 42.6667ZM25.3327 33.3334H27.9993C27.9993 34.3943 28.4208 35.4117 29.1709 36.1618C29.9211 36.912 30.9385 37.3334 31.9993 37.3334C33.0602 37.3334 34.0776 36.912 34.8278 36.1618C35.5779 35.4117 35.9993 34.3943 35.9993 33.3334H38.666C38.666 35.1015 37.9636 36.7972 36.7134 38.0475C35.4632 39.2977 33.7675 40.0001 31.9993 40.0001C30.2312 40.0001 28.5355 39.2977 27.2853 38.0475C26.0351 36.7972 25.3327 35.1015 25.3327 33.3334ZM26.666 30.6667C26.1356 30.6667 25.6269 30.456 25.2518 30.081C24.8767 29.7059 24.666 29.1972 24.666 28.6667C24.666 28.1363 24.8767 27.6276 25.2518 27.2525C25.6269 26.8775 26.1356 26.6667 26.666 26.6667C27.1964 26.6667 27.7052 26.8775 28.0802 27.2525C28.4553 27.6276 28.666 28.1363 28.666 28.6667C28.666 29.1972 28.4553 29.7059 28.0802 30.081C27.7052 30.456 27.1964 30.6667 26.666 30.6667ZM37.3327 30.6667C36.8022 30.6667 36.2935 30.456 35.9185 30.081C35.5434 29.7059 35.3327 29.1972 35.3327 28.6667C35.3327 28.1363 35.5434 27.6276 35.9185 27.2525C36.2935 26.8775 36.8022 26.6667 37.3327 26.6667C37.8631 26.6667 38.3718 26.8775 38.7469 27.2525C39.122 27.6276 39.3327 28.1363 39.3327 28.6667C39.3327 29.1972 39.122 29.7059 38.7469 30.081C38.3718 30.456 37.8631 30.6667 37.3327 30.6667Z" fill="#00B4A4"/>
</g>
<defs>
<clipPath id="clip0_1661_7999">
<rect width="32" height="32" fill="white" transform="translate(16 16)"/>
</clipPath>
</defs>
</svg>
