<svg width="400" height="400" viewBox="0 0 400 400" fill="none" xmlns="http://www.w3.org/2000/svg">
<path d="M199.115 399.288C198.733 399.288 198.351 399.288 197.969 399.288H197.587C195.487 399.288 193.386 399.288 191.477 399.097H190.713C190.14 399.097 189.758 399.097 189.185 399.097C186.703 398.906 184.221 398.715 181.165 398.524C180.401 398.524 179.829 398.333 179.065 398.333H178.492C176.2 398.142 174.1 397.76 171.808 397.569L170.09 397.378C167.035 396.996 163.979 396.423 160.924 395.85C160.16 395.659 159.205 395.468 158.251 395.277C157.869 395.277 156.723 394.896 156.723 394.896C155.959 394.705 155.386 394.514 154.622 394.514C153.286 394.132 151.758 393.941 150.421 393.559L148.512 392.986C147.175 392.604 145.648 392.222 144.311 391.84C144.311 391.84 142.783 391.458 142.21 391.267C140.874 390.885 139.728 390.504 138.391 390.122L137.627 389.931C137.055 389.74 136.482 389.549 136.1 389.358C134.19 388.785 132.281 388.021 130.371 387.448C129.798 387.257 129.225 387.066 128.653 386.684L127.507 386.303C126.552 385.921 125.406 385.539 124.451 385.157C123.879 384.966 123.306 384.584 122.542 384.393L121.969 384.202C120.823 383.629 119.678 383.247 118.532 382.674C117.959 382.483 115.668 381.338 115.668 381.338C115.095 381.147 114.522 380.765 113.949 380.574C113.567 380.383 112.803 380.001 112.803 380.001C111.467 379.428 110.13 378.664 108.793 377.901L108.029 377.519C107.456 377.137 106.884 376.946 106.311 376.564C104.019 375.227 101.728 374.081 99.8182 372.936C97.7177 371.599 95.4263 370.262 92.7529 368.544C92.1801 368.162 91.6072 367.78 91.0343 367.398C89.1247 366.252 87.2152 364.916 85.4966 363.579C85.4966 363.579 84.3509 362.815 83.969 362.624C81.8685 361.096 80.1499 359.76 78.4313 358.423C78.2403 358.423 78.2403 358.232 78.0494 358.041C77.2855 357.468 76.7127 356.895 75.9488 356.514L74.8031 355.559C74.2302 354.986 73.4664 354.604 72.8935 354.031C72.5116 353.649 72.1298 353.458 71.7479 353.076L71.3659 352.694C70.0292 351.549 68.6925 350.403 67.3559 349.257L66.783 348.684C66.0192 347.921 65.0644 347.157 64.3006 346.393C62.7729 345.056 61.4363 343.529 60.0996 342.192L59.3358 341.428C58.7629 340.855 58.19 340.282 57.6171 339.709C56.0895 337.991 54.3709 336.272 52.8432 334.554L52.2704 333.981C51.8885 333.599 51.5066 333.026 51.1247 332.644C49.0241 330.162 46.9237 327.679 45.0141 325.197C41.5769 320.996 38.5216 316.604 35.4664 312.212C6.44115 269.438 -5.58907 216.543 2.43105 167.277C3.76774 158.493 5.86826 149.9 8.35068 141.498C11.215 132.332 14.6522 123.357 18.6623 114.955C35.0844 80.5831 61.2453 51.7489 94.4715 31.1257C127.316 10.6935 164.552 0 202.552 0C231.959 0 260.412 6.49248 286.954 19.2865C289.437 20.4322 292.11 21.7689 294.975 23.4875C295.547 23.6785 296.12 24.0604 296.693 24.2513C297.075 24.4423 297.648 24.8242 298.03 25.0151L298.603 25.3971C356.844 58.8142 396.563 123.166 399.809 189.619C400 192.483 400 195.92 400 199.548C400 207.759 399.427 215.97 398.281 223.991C395.226 247.287 387.97 269.82 376.894 291.207C375.94 293.116 374.794 295.026 373.839 296.935C373.648 297.317 372.884 298.654 372.884 298.654C372.121 299.991 371.357 301.327 370.593 302.473C370.402 302.855 369.256 304.574 369.256 304.574C368.492 305.719 367.729 306.865 367.156 308.011C366.774 308.584 365.819 310.111 365.819 310.111C365.055 311.257 364.291 312.212 363.528 313.358C363.146 313.93 362 315.458 362 315.458C361.236 316.604 360.472 317.559 359.708 318.704C359.136 319.468 358.563 320.232 358.181 320.805C357.417 321.76 356.653 322.905 355.889 323.86C355.316 324.624 354.744 325.197 354.171 325.961C353.407 326.915 352.452 327.87 351.688 329.016C351.115 329.78 350.543 330.353 349.97 331.116C349.206 332.071 348.251 333.026 347.296 333.981L346.914 334.363C346.532 334.936 345.96 335.317 345.578 335.89C344.623 336.845 343.859 337.8 342.904 338.755L342.331 339.328C341.95 339.709 341.568 340.282 340.995 340.664C340.04 341.619 339.085 342.574 337.94 343.529L337.367 344.101C336.985 344.483 336.603 344.865 336.221 345.247C334.884 346.393 333.548 347.73 332.402 348.875C331.447 349.83 330.301 350.594 329.347 351.549L328.774 352.122C328.201 352.694 327.437 353.267 326.864 353.84C326.1 354.413 325.336 354.986 324.573 355.75L323.427 356.704C322.854 357.086 322.472 357.468 321.899 358.041C320.945 358.805 319.99 359.569 319.035 360.333C319.035 360.333 317.316 361.478 316.934 361.86C315.789 362.624 314.643 363.579 313.497 364.343C313.497 364.343 312.542 364.916 312.352 365.107L311.588 365.679C311.015 366.061 310.251 366.634 309.678 367.016C307.96 368.162 306.432 369.117 304.713 370.262C302.613 371.599 300.512 372.745 297.839 374.272C297.457 374.463 296.12 375.227 296.12 375.227C294.402 376.182 292.683 376.946 290.965 377.901L290.583 378.091C290.201 378.282 290.01 378.473 289.628 378.664C289.246 378.855 289.055 379.046 288.673 379.046L288.482 379.237C286.573 380.192 284.854 380.956 282.944 381.72L282.372 381.911C281.99 382.102 281.417 382.292 281.035 382.483C278.743 383.438 276.261 384.393 273.779 385.348C273.206 385.539 272.824 385.73 272.251 385.921L271.678 386.112C269.768 386.875 267.859 387.448 265.949 388.212C265.186 388.403 264.422 388.785 263.658 388.976C261.557 389.74 259.266 390.313 256.974 391.076C256.593 391.267 256.402 391.267 256.211 391.267C256.02 391.267 255.829 391.267 255.829 391.458C255.256 391.649 254.301 391.84 253.537 392.031L252.201 392.413C251.437 392.604 250.482 392.795 249.718 392.986C248.954 393.177 248 393.368 247.236 393.559L246.472 393.75C245.517 393.941 244.371 394.323 243.417 394.514C242.462 394.705 241.698 394.896 240.934 395.086H240.552C239.407 395.277 238.261 395.468 237.115 395.659C235.969 395.85 235.015 396.041 233.869 396.232C233.869 396.232 232.532 396.423 232.341 396.423L231.005 396.614C230.05 396.805 229.095 396.805 228.331 396.996C226.995 397.187 225.658 397.378 224.512 397.569C224.512 397.569 222.984 397.76 222.412 397.76C218.592 398.142 214.582 398.524 210.954 398.715H209.427C207.517 398.715 205.607 398.906 203.698 398.906C202.934 399.288 199.688 399.288 199.115 399.288Z" fill="white"/>
<path d="M387.401 199.739C387.401 207.377 386.828 215.207 385.873 222.654C383.009 244.805 376.134 266.192 365.823 286.051C351.501 313.931 330.496 338.182 304.526 355.941C302.235 357.659 299.752 359.187 297.27 360.715C292.687 363.579 287.913 366.061 283.139 368.544C273.209 373.509 262.707 377.519 252.013 380.383C244.566 382.483 237.119 384.202 229.481 385.348C222.797 386.494 215.923 387.066 209.048 387.448C205.611 387.639 202.174 387.639 198.546 387.639C186.516 387.639 174.486 386.494 162.837 384.202C161.882 384.011 160.928 383.82 159.973 383.629C152.908 382.102 146.033 380.383 139.159 378.092C132.093 375.8 125.028 373.127 118.345 369.88C113.762 367.78 109.37 365.488 104.978 363.006C97.9125 358.996 91.229 354.413 84.7366 349.448C83.018 348.112 81.1084 346.584 79.3898 345.247C69.6511 337.227 60.8671 328.061 53.038 318.132C49.7917 314.121 46.9274 310.111 44.0631 305.91C17.3294 266.383 5.10819 216.925 12.9374 169.186C14.274 160.975 16.1836 152.764 18.666 144.935C21.3394 136.342 24.5856 127.94 28.4048 119.92C71.7516 29.2162 185.752 -16.4222 281.23 29.5981C341.953 58.8142 384.345 122.784 387.783 190.191C387.401 193.629 387.401 196.684 387.401 199.739Z" fill="#B4E2E0"/>
<path d="M376.516 190.764H224.516C228.335 185.036 234.445 181.026 241.129 179.88C248.767 178.543 256.787 180.835 262.516 185.99C270.536 171.478 286.003 160.975 302.616 160.975C319.229 160.975 335.652 172.815 338.898 188.855C344.626 183.699 352.838 181.217 360.476 182.171C366.586 182.935 372.315 186.181 376.516 190.764Z" fill="white"/>
<path d="M215.918 76.3821H63.918C67.7371 70.6534 73.8476 66.6434 80.531 65.4977C88.1693 64.161 96.1894 66.4524 101.918 71.6082C109.938 57.0956 125.406 46.5931 142.019 46.5931C158.632 46.5931 175.054 58.4323 178.3 74.4725C184.029 69.3168 192.24 66.8343 199.878 67.7891C205.989 68.5529 211.717 71.7992 215.918 76.3821Z" fill="white"/>
<path d="M83.2056 145.317H18.0898C20.7632 136.724 24.0095 128.322 27.8286 120.302C36.6125 125.267 43.4869 133.478 45.5874 143.216C51.3161 138.061 59.5271 135.578 67.1653 136.533C73.2759 137.488 79.1955 140.734 83.2056 145.317Z" fill="white"/>
<path d="M186.321 248.242H34.3203C38.1394 242.513 44.25 238.503 50.9334 237.357C58.5716 236.021 66.5917 238.312 72.3204 243.468C80.3405 228.955 95.8079 218.453 112.421 218.453C129.034 218.453 145.456 230.292 148.703 246.332C154.431 241.177 162.642 238.694 170.28 239.649C176.391 240.604 182.12 243.659 186.321 248.242Z" fill="white"/>
<path d="M363.343 285.503C347.685 315.865 324.006 342.217 294.79 359.976C237.312 395.112 160.548 396.067 102.116 362.458C82.0658 350.81 64.4979 335.534 50.3672 317.584C53.2315 307.081 57.6235 297.152 64.116 288.368C68.8899 281.684 74.8095 275.956 79.9653 269.654C92.5683 254.187 100.779 235.282 103.453 215.614C103.453 215.423 103.453 215.423 103.453 215.232C102.88 214.659 102.116 214.277 101.543 213.704C94.6688 208.167 87.6035 200.719 87.2216 191.935C86.8397 185.634 89.704 179.523 90.0859 173.222C90.2769 167.684 88.5583 162.337 87.7944 156.8C86.2668 145.724 88.7492 134.267 93.905 124.337C98.8699 114.407 106.317 106.005 114.719 98.7492L114.91 98.5582L115.101 98.3673C122.166 92.2567 129.805 86.1461 137.634 80.9903C140.307 79.2717 142.981 77.5531 145.845 76.0255C160.739 67.6235 176.78 62.6586 194.157 63.9953C212.679 65.5229 230.438 72.7792 245.142 84.0456C254.116 91.111 261.946 99.513 268.056 109.252C268.247 109.634 268.629 110.016 268.82 110.588C271.303 114.598 273.403 118.99 275.313 123.191V123.382C279.705 133.503 283.333 144.006 287.152 154.317C298.418 184.297 313.695 212.749 332.408 238.719C342.338 252.468 353.031 265.453 361.242 280.348C361.624 282.066 362.579 283.785 363.343 285.503Z" fill="#D6BF7F"/>
<path d="M97.1536 73.3268C100.018 65.4977 106.892 59.769 114.34 55.9499C118.732 53.6584 123.696 51.9398 128.661 51.9398C133.626 51.7489 138.782 53.4675 142.219 57.0956C144.32 59.3871 145.847 62.2514 146.611 65.3067C150.43 77.7188 145.656 96.6234 132.289 101.97C127.515 103.88 123.123 101.588 118.731 99.8696C112.621 97.5781 104.792 97.1962 100.209 92.0404C96.0078 87.0756 95.0531 79.4374 97.1536 73.3268Z" fill="#D6BF7F"/>
<path d="M298.231 109.799C295.558 114.191 291.93 117.819 287.538 120.493C284.291 122.402 280.854 123.739 277.226 124.121C276.844 124.121 276.271 124.312 275.889 124.312C262.332 125.267 248.583 114.955 243.427 102.734C240.181 95.0957 242.663 89.558 247.437 84.9751C250.492 81.9198 254.693 79.2464 258.512 76.764C265.196 72.372 273.216 68.7439 281.427 69.8896C292.502 71.2263 301.668 81.3469 302.623 92.6133C303.005 98.342 301.477 104.453 298.231 109.799Z" fill="#D6BF7F"/>
<path d="M176.976 243.468C176.594 243.468 176.403 243.277 176.594 242.895C176.976 239.076 180.223 236.212 183.278 235.066C186.715 233.92 190.343 234.111 193.78 234.302C197.218 234.493 200.846 234.875 204.092 235.257C209.821 235.83 215.549 236.403 221.469 236.594C232.353 236.785 241.137 235.257 248.394 231.629C255.077 228.192 261.379 222.654 267.107 215.016C279.519 198.212 285.63 176.443 283.529 155.629C283.529 155.438 283.72 155.056 283.911 155.056C284.102 155.056 284.484 155.247 284.484 155.438C286.585 176.634 280.474 198.403 267.871 215.398C262.142 223.227 255.65 228.955 248.966 232.393C241.519 236.021 232.735 237.739 221.66 237.548C215.931 237.357 210.012 236.785 204.283 236.212C200.846 235.83 197.409 235.448 193.971 235.257C190.534 235.066 187.097 234.875 183.851 236.021C180.986 236.976 177.931 239.649 177.74 243.086C177.358 243.277 177.167 243.468 176.976 243.468Z" fill="#172C45"/>
<path d="M125.418 237.548C125.227 237.548 125.036 237.357 125.036 237.357C120.644 228.001 113.006 220.171 103.84 215.398C103.649 215.207 103.458 215.016 103.649 214.825C103.84 214.634 104.031 214.443 104.222 214.634C113.579 219.599 121.217 227.428 125.8 236.976C125.991 237.166 125.8 237.548 125.609 237.548C125.418 237.548 125.418 237.548 125.418 237.548Z" fill="#172C45"/>
<path d="M183.279 215.589C183.279 222.845 181.751 229.91 180.033 236.976C179.842 237.548 179.842 238.121 179.651 238.503C179.46 238.885 179.46 239.267 179.269 239.84C178.314 243.277 177.55 246.905 175.45 249.77C171.822 255.307 165.329 258.363 158.837 259.699C155.399 260.272 151.962 260.654 148.334 260.272C147.952 260.272 147.57 260.272 147.188 260.081C143.751 259.699 140.505 258.744 137.45 257.408C130.957 254.353 125.61 248.433 123.701 241.368C122.937 238.885 122.746 236.403 122.746 233.729C122.746 233.156 122.746 232.393 122.746 231.82C122.746 230.865 122.746 230.101 122.746 229.337C122.937 221.89 123.128 214.634 124.656 207.378C126.183 200.121 129.43 193.247 134.776 188.091C146.425 177.016 167.43 178.925 176.596 192.292C181.56 198.975 183.47 207.378 183.279 215.589Z" fill="white"/>
<path d="M135.542 220.744C131.532 221.89 127.713 224.945 126.758 228.955C125.804 232.965 127.713 237.167 130.196 240.413C134.778 246.141 142.417 250.151 149.291 248.051C152.537 247.096 155.211 244.805 157.311 242.131C160.176 238.312 162.085 233.156 160.176 228.764C156.738 219.981 143.371 218.453 135.542 220.744Z" fill="#172C45"/>
<path d="M148.717 260.272C148.335 260.272 147.953 260.272 147.571 260.081C145.661 256.453 143.943 252.443 142.988 248.433C142.224 245.378 141.651 242.322 141.27 239.076C141.27 238.885 141.46 238.503 141.651 238.503C141.842 238.503 142.033 238.694 142.224 238.885C142.415 242.131 142.988 245.187 143.943 248.433C144.898 252.634 146.616 256.644 148.717 260.272Z" fill="#172C45"/>
<path d="M126.561 182.935C126.561 186.754 123.506 189.81 119.687 189.81C115.868 189.81 112.812 186.754 112.812 182.935C112.812 179.116 115.868 176.061 119.687 176.061C123.506 176.061 126.561 179.116 126.561 182.935Z" fill="#172C45"/>
<path d="M198.171 188.855C198.171 192.674 195.115 195.729 191.296 195.729C187.477 195.729 184.422 192.674 184.422 188.855C184.422 185.036 187.477 181.98 191.296 181.98C195.115 181.98 198.171 185.036 198.171 188.855Z" fill="#172C45"/>
<path d="M115.293 101.206C122.167 92.8043 130.951 85.9299 140.69 81.347" stroke="#172C45" stroke-width="0.5" stroke-miterlimit="10" stroke-linecap="round" stroke-linejoin="round"/>
<path d="M298.233 109.799C295.56 114.191 291.932 117.819 287.54 120.493C284.294 122.402 280.856 123.739 277.228 124.121V124.312C276.655 124.312 276.273 124.312 275.701 124.312C274.746 124.312 273.6 124.121 272.645 124.121C268.826 123.739 267.68 123.357 268.826 119.538C269.59 116.865 270.163 114.191 270.545 111.518C270.736 110.754 270.736 109.99 270.927 109.226C271.5 104.644 272.072 100.061 274.173 96.0506C276.273 92.0405 280.284 88.6033 284.866 88.6033C287.922 88.6033 290.595 90.131 292.887 92.0405C294.796 93.5681 296.324 95.4777 297.469 97.7692C299.379 101.397 299.57 105.789 298.233 109.799Z" fill="#D6BF7F"/>
<path d="M79.0134 345.438C69.2747 337.418 60.4908 328.252 52.6616 318.323C49.4154 314.312 46.551 310.302 43.6867 306.101C40.8223 294.453 39.1038 282.423 40.2495 270.393C42.1591 250.533 52.4706 231.82 68.1289 219.408C66.0284 241.558 81.3049 260.463 86.0788 282.232C90.4707 303.428 85.8878 324.815 79.0134 345.438Z" fill="#00B4A4"/>
<path d="M127.137 301.328C122.554 319.85 127.328 339.9 122.554 358.423C121.409 362.433 119.881 366.443 117.971 370.071C113.388 367.971 108.997 365.679 104.605 363.197C97.5392 359.187 90.8558 354.604 84.3633 349.639C85.3181 345.247 86.2728 341.046 87.2276 336.654C90.8558 322.524 96.3935 308.393 106.323 297.699C115.871 287.388 128.665 281.086 141.077 274.785C135.73 282.805 129.429 291.971 127.137 301.328Z" fill="#00B4A4"/>
<path d="M168.954 369.117C166.09 374.081 162.843 379.046 159.406 384.011C152.341 382.484 145.466 380.765 138.592 378.473C137.446 368.735 135.537 358.996 134.391 349.066C132.672 335.127 132.1 320.614 135.919 307.056C139.547 293.498 147.949 280.513 160.552 274.212C162.652 287.006 173.155 295.217 178.12 307.056C186.522 327.106 179.838 350.403 168.954 369.117Z" fill="#00B4A4"/>
<path d="M214.595 379.046C212.876 382.102 210.775 384.775 208.675 387.639C205.238 387.83 201.801 387.83 198.172 387.83C198.745 382.865 198.554 377.71 198.172 372.745C196.645 358.041 191.871 344.102 187.861 329.78C183.851 315.649 180.795 300.755 183.278 286.242C185.569 271.729 194.162 257.408 207.911 251.87C205.047 260.845 204.665 270.966 207.911 279.75C210.585 287.006 215.358 293.116 218.987 299.991C231.781 324.433 228.916 355.559 214.595 379.046Z" fill="#00B4A4"/>
<path d="M252.589 379.237C252.399 379.619 252.208 380.001 251.826 380.574C244.378 382.674 236.931 384.393 229.293 385.539C233.494 367.971 235.785 350.021 234.258 332.071C233.303 319.85 230.63 308.011 230.057 295.79C229.484 283.569 231.393 270.775 238.459 261.036C243.233 280.322 256.409 294.835 262.137 313.931C268.821 335.508 263.665 359.569 252.589 379.237Z" fill="#00B4A4"/>
<path d="M305.678 348.684C305.296 351.167 304.914 353.649 304.532 355.941C302.241 357.659 299.758 359.187 297.276 360.715C292.693 363.579 287.919 366.061 283.145 368.544C275.698 346.202 265.578 324.624 260.422 301.709C254.884 277.84 254.884 251.297 267.487 230.101C266.723 239.649 271.306 247.287 276.653 255.116C282 262.945 288.683 270.011 294.03 278.031C306.824 298.654 309.115 324.624 305.678 348.684Z" fill="#00B4A4"/>
<path d="M385.876 222.845C383.011 244.996 376.137 266.383 365.825 286.242C351.504 314.122 330.499 338.373 304.529 356.132C302.237 357.85 299.755 359.378 297.272 360.906C292.689 363.77 287.916 366.252 283.142 368.735C273.212 373.7 262.709 377.71 252.016 380.574C244.569 382.674 237.121 384.393 229.483 385.539C222.8 386.685 215.925 387.257 209.051 387.639C205.614 387.83 202.177 387.83 198.549 387.83C186.518 387.83 174.488 386.685 162.84 384.393C166.659 379.046 172.77 374.463 176.971 372.172C186.709 366.825 198.739 366.061 209.051 369.88C205.232 358.041 202.177 345.82 202.559 333.217C202.94 320.805 207.523 308.011 216.689 299.8C229.483 288.534 249.152 287.961 264.619 294.835C280.086 301.709 292.117 314.885 301.282 329.016C301.282 320.805 305.674 312.594 312.549 307.82C319.423 303.237 328.78 302.282 336.418 305.529C329.735 287.77 328.589 267.337 336.8 250.152C344.82 232.966 363.534 220.172 382.247 222.272C383.393 222.272 384.73 222.463 385.876 222.845Z" fill="#172C45"/>
<path d="M230.812 65.4976C231.003 65.1157 231.194 64.7338 231.576 64.3519C233.486 61.2966 235.395 58.6232 237.496 55.7589C240.933 51.5579 244.752 47.7388 248.953 44.3016C249.335 43.9197 249.908 43.5378 250.29 43.3468C256.973 38.382 264.612 34.9448 272.632 33.6081C273.777 33.4171 274.923 33.2262 276.069 33.2262C276.26 33.2262 276.26 33.2262 276.26 33.2262C280.843 33.0352 285.235 33.4171 289.627 34.3719C294.782 37.4272 299.747 40.6734 304.521 44.1106C306.431 45.4473 308.34 46.975 310.059 48.3116C310.823 48.8845 311.587 49.4574 312.159 50.0302C312.35 50.2212 312.732 50.4122 312.923 50.6031C313.114 50.7941 313.305 50.7941 313.305 50.985C315.406 52.7036 317.506 54.6132 319.607 56.3318C320.943 57.4775 322.28 58.8142 323.617 59.9599C323.044 61.6785 322.662 63.3971 322.089 65.3067C321.898 65.8795 321.707 66.2614 321.516 66.8343C320.561 69.8896 319.225 73.1358 317.315 76.1911C312.159 85.357 304.33 92.8042 295.355 98.151C294.782 98.5329 294.21 98.9148 293.446 99.1058C291.727 100.061 290.009 100.824 288.29 101.588C284.089 103.307 279.888 104.643 275.496 105.407C272.632 105.98 269.767 106.171 266.712 106.171C265.948 106.171 264.993 106.171 264.23 106.171C263.657 106.171 263.275 106.171 262.702 106.171C256.591 105.789 250.672 104.834 244.752 103.498C244.37 103.307 243.797 103.307 243.416 103.116C234.441 101.015 225.657 98.151 216.682 96.6233C216.491 96.6233 216.3 96.6233 215.918 96.4324L216.682 94.9047C220.883 84.7841 225.084 74.6635 230.812 65.4976Z" fill="#00B4A4"/>
<path d="M215.151 95.8595C215.533 95.4776 216.106 95.0957 216.488 94.7138C226.036 86.6937 237.493 79.8193 251.433 73.1358C252.006 72.9449 252.388 72.563 252.961 72.372C256.016 71.0353 259.071 69.6986 262.508 68.171C266.709 66.4524 271.101 64.7338 275.302 63.0152C275.684 62.8243 276.257 62.6333 276.639 62.4423C283.322 59.9599 289.815 57.6685 296.307 55.377C298.981 54.4222 301.845 53.4674 304.519 52.5127C304.9 52.3217 305.473 52.1308 305.855 52.1308C307.956 51.3669 310.056 50.6031 312.157 49.8393C312.348 50.0302 312.73 50.2212 312.921 50.4122C313.111 50.6031 313.302 50.6031 313.302 50.7941C312.348 51.176 311.584 51.3669 310.629 51.7488C309.101 52.3217 307.574 52.8946 306.237 53.2765C305.855 53.4674 305.282 53.6584 304.9 53.8494C302.227 54.8041 299.554 55.7589 296.689 56.7137C290.197 59.0051 283.513 61.2966 276.83 63.779C276.257 63.97 275.875 64.1609 275.493 64.3519C271.292 65.8795 267.091 67.5981 262.89 69.3167C259.835 70.6534 256.971 71.7992 254.106 73.1358C253.533 73.3268 253.152 73.5178 252.579 73.8997C237.875 80.7741 226.227 88.0303 216.297 96.2414C216.106 96.4324 215.915 96.6233 215.724 96.6233C215.533 96.8143 215.151 96.8143 214.96 96.8143C214.96 96.8143 214.77 96.8143 214.77 96.6233C214.96 96.6233 214.96 96.2414 215.151 95.8595Z" fill="#172C45"/>
<path d="M244.751 103.307C244.369 103.116 243.988 103.116 243.415 102.925C247.425 93.759 250.48 84.0203 252.771 73.8997V73.7087C252.39 73.5178 251.817 73.3268 251.244 73.1359C244.369 70.2716 237.495 67.5982 230.43 65.3067C230.621 64.9248 230.812 64.5429 231.194 64.161C238.45 66.6434 245.706 69.3168 252.962 72.3721C253.153 72.563 253.535 72.563 253.726 72.754C253.917 72.9449 254.108 73.1359 254.108 73.3268V73.5178C252.008 83.8294 248.761 93.95 244.751 103.307Z" fill="#172C45"/>
<path d="M264.226 106.171C263.653 106.171 263.271 106.171 262.698 106.171C269 93.1862 273.582 78.8646 275.683 64.5429C275.683 64.3519 275.683 63.97 275.874 63.7791C275.683 63.5881 275.683 63.3972 275.492 63.2062C269 54.4223 259.452 47.7388 248.949 44.3016C249.331 43.9197 249.713 43.7288 250.286 43.3469C260.788 46.975 270.336 53.6585 276.829 62.6334C277.02 62.8243 277.02 63.0153 277.211 63.0153C277.211 63.2062 277.402 63.3972 277.402 63.3972C277.402 63.5881 277.402 63.5881 277.402 63.7791C275.11 78.4826 270.718 92.9952 264.226 106.171Z" fill="#172C45"/>
<path d="M306.619 53.2765C306.619 53.4675 306.619 53.4675 306.619 53.6584C306.619 54.2313 306.428 54.6132 306.428 55.1861C304.518 70.0806 300.89 84.4022 295.543 98.151C294.97 98.5329 294.397 98.9148 293.634 99.1058C298.98 85.357 302.799 71.0354 304.709 56.1408C304.9 55.377 304.9 54.8042 305.091 54.0403C305.091 53.8494 305.091 53.6584 305.091 53.2765C304.9 53.0856 304.709 52.8946 304.709 52.7037C299.935 46.5931 293.061 41.4373 284.277 37.6182C280.458 35.8996 276.448 34.5629 272.438 33.6081C273.583 33.4172 274.729 33.2262 275.875 33.2262C278.93 34.181 281.794 35.1358 284.85 36.4725C294.015 40.4825 301.272 45.6383 306.046 52.3217C306.237 52.5127 306.237 52.7037 306.428 52.7037C306.619 52.8946 306.619 53.0856 306.619 53.2765Z" fill="#172C45"/>
<path opacity="0.23" d="M291.348 68.553C295.358 63.97 299.941 59.769 304.906 56.1409C305.479 55.7589 305.861 55.377 306.433 54.9951C307.961 53.8494 309.489 52.8946 311.016 51.9398C311.78 51.5579 312.353 50.9851 313.117 50.6031C313.308 50.7941 313.499 50.7941 313.499 50.9851C315.599 52.7037 317.7 54.6132 319.8 56.3318C321.137 57.4775 322.474 58.8142 323.81 59.96C323.238 61.6786 322.856 63.3972 322.283 65.3067C322.092 65.8796 321.901 66.2615 321.71 66.8344C320.755 69.8896 319.418 73.1359 317.509 76.1912C312.353 85.357 304.524 92.8043 295.549 98.151C294.976 98.5329 294.403 98.9148 293.639 99.1058C291.921 100.061 290.202 100.824 288.484 101.588C284.283 103.307 280.082 104.644 275.69 105.407C274.162 93.1862 285.619 75.2364 291.348 68.553Z" fill="#172C45"/>
<path d="M295.165 78.8646C295.738 77.9098 296.311 76.955 297.075 76.0003C297.075 76.0003 297.075 75.8093 297.266 75.8093C298.794 73.5179 300.703 71.6083 302.613 69.6987C303.186 69.1259 303.758 68.744 304.331 68.1711C309.105 63.7791 314.643 60.151 319.99 56.5228C320.181 56.7138 320.562 56.9047 320.753 57.2866C321.135 57.4776 321.326 57.8595 321.708 58.2414C322.472 59.0052 323.236 59.5781 324 60.3419C325.718 61.8696 327.246 63.3972 328.774 65.1158C329.155 65.4977 329.537 66.0706 330.11 66.4525C330.301 66.6435 330.301 66.6435 330.492 66.8344C330.874 67.2163 331.256 67.5982 331.447 67.9801C332.211 68.744 332.784 69.5078 333.547 70.0807C334.502 71.2264 335.457 72.3721 336.603 73.5178C337.176 74.0907 337.748 74.8545 338.321 75.4274C339.085 76.1912 339.658 77.146 340.422 77.9098C340.804 78.2917 340.995 78.6736 341.377 79.0555C342.713 80.7741 344.241 82.6837 345.578 84.4023C346.341 85.3571 346.914 86.3119 347.678 87.2666C348.633 88.6033 349.397 89.7491 350.351 91.0857C351.306 92.6134 352.261 93.9501 353.216 95.4777C353.216 95.6687 353.407 95.6687 353.407 95.8596C355.507 99.1059 357.417 102.352 359.326 105.789C357.417 114.573 353.598 122.784 348.06 129.659C347.487 130.232 346.914 130.995 346.341 131.568C345.96 131.95 345.769 132.332 345.387 132.714C341.377 137.297 336.603 141.116 331.829 144.935C331.447 145.126 331.065 145.508 330.683 145.699C323.427 151.237 315.598 156.392 308.532 162.312C308.341 162.503 308.15 162.694 307.959 162.694C307.768 162.121 307.387 161.739 307.196 161.166C302.04 151.619 297.075 141.88 293.447 131.568C293.256 131.186 293.065 130.804 293.065 130.232C291.919 126.985 290.964 123.548 290.201 120.111C289.055 114.955 288.482 109.417 288.673 104.071C288.673 103.498 288.673 102.925 288.673 102.543C288.673 102.352 288.673 101.97 288.673 101.779C289.055 93.5682 290.964 85.739 295.165 78.8646Z" fill="#00B4A4"/>
<path d="M330.3 66.4525C330.681 66.8344 331.063 67.2163 331.254 67.5982C330.3 70.0806 329.536 72.3721 328.581 74.8545C326.289 81.347 323.807 88.0304 321.516 94.7139C321.325 95.2867 321.134 95.6687 320.943 96.2415C319.415 100.443 318.078 104.835 316.742 109.226C315.787 112.282 314.832 115.528 314.068 118.392C313.877 118.965 313.686 119.347 313.686 119.92C309.676 135.578 307.767 149.136 307.958 162.121C307.958 162.312 307.958 162.694 307.958 162.885C307.958 163.076 307.767 163.458 307.576 163.458H307.385C307.003 163.458 306.812 163.267 306.621 162.885C306.621 162.312 306.621 161.739 306.621 160.975C306.621 148.372 308.34 135.387 312.159 120.302C312.35 119.729 312.35 119.156 312.541 118.583C313.304 115.337 314.259 112.091 315.405 108.654C316.742 104.262 318.078 99.8697 319.606 95.4777C319.797 95.0958 319.988 94.5229 319.988 94.141C322.279 87.4576 324.762 80.9651 327.053 74.4726C328.39 71.7992 329.345 69.1259 330.3 66.4525Z" fill="#172C45"/>
<path d="M331.256 144.553C330.874 144.744 330.492 145.126 330.11 145.317C325.527 136.342 319.99 127.749 313.688 119.729L313.497 119.538C313.115 119.729 312.543 120.111 312.161 120.302C305.668 123.739 299.176 127.367 292.874 131.377C292.683 130.995 292.492 130.613 292.492 130.041C298.985 125.84 305.859 122.02 312.542 118.583C312.733 118.392 313.115 118.201 313.306 118.201C313.497 118.01 313.688 118.201 313.879 118.201C313.879 118.201 314.07 118.201 314.07 118.392C320.945 126.603 326.673 135.387 331.256 144.553Z" fill="#172C45"/>
<path d="M345.771 131.377C345.389 131.759 345.198 132.141 344.816 132.523C338.896 119.347 330.685 106.744 320.946 96.0506C320.755 95.8596 320.564 95.6687 320.373 95.4777C320.182 95.4777 319.992 95.4777 319.801 95.4777C308.725 94.9048 297.65 98.1511 288.293 104.071C288.293 103.498 288.293 102.925 288.293 102.543C297.841 96.6234 309.107 93.5682 320.182 94.332C320.373 94.332 320.564 94.332 320.755 94.332C320.946 94.332 321.137 94.5229 321.137 94.5229L321.328 94.7139C331.449 105.216 339.66 118.01 345.771 131.377Z" fill="#172C45"/>
<path d="M295.168 78.8646C295.741 77.9098 296.314 76.955 297.078 76.0002C298.605 75.0454 300.133 73.8997 301.851 73.1359C302.424 72.754 302.806 72.563 303.379 72.1811C303.952 71.7992 304.525 71.6082 305.289 71.2263C311.017 68.1711 316.746 66.2615 322.284 65.3067C324.384 64.9248 326.676 64.7339 328.776 64.7339C329.158 65.1158 329.54 65.6886 330.113 66.0705C327.439 66.0705 324.766 66.2615 321.902 66.6434C316.746 67.5982 311.399 69.5077 306.052 72.1811C305.098 72.754 304.143 73.1359 303.188 73.7087C302.615 74.0907 302.042 74.2816 301.66 74.6635C299.178 76.1912 297.078 77.5279 295.168 78.8646Z" fill="#172C45"/>
<path d="M28.9759 190.001C25.9207 189.619 22.6744 188.473 21.5287 185.609C20.5739 183.126 21.9106 180.453 24.0112 178.925C26.1117 177.397 28.785 177.016 31.4584 177.016C37.378 177.207 43.1067 179.307 48.8353 181.408C42.5338 178.543 37.1871 173.196 34.5137 166.704C32.9861 163.267 32.7951 158.493 35.8503 156.392C38.3328 154.674 41.77 155.629 44.6343 157.156C47.8805 158.875 50.7449 161.166 53.0363 163.84C55.7097 166.704 57.8102 170.332 58.574 174.151C59.1469 177.397 58.956 181.026 57.2374 183.89C55.5188 187.136 53.8002 186.945 50.7449 187.327C47.1167 187.709 43.6795 189.428 40.2423 189.81C36.2323 190.573 32.6041 190.573 28.9759 190.001Z" fill="white"/>
<path d="M48.4547 179.88C46.7361 183.699 45.2085 187.709 45.5904 191.91C45.9723 196.111 48.6457 200.121 52.6558 201.076C56.8568 202.031 61.2487 199.357 64.304 196.302C68.1231 192.483 70.9874 187.518 72.5151 182.362C74.4246 175.679 72.3241 166.131 63.7311 165.94C56.6658 165.749 50.9371 174.342 48.4547 179.88Z" fill="#D6BF7F"/>
<path d="M205.033 31.8896C206.561 29.98 208.088 27.4976 207.134 25.2061C206.37 23.2966 204.078 22.1508 201.978 22.5328C199.877 22.7237 197.968 24.0604 196.44 25.3971C192.812 28.8343 190.52 33.2262 188.42 37.6182C190.711 32.4624 190.902 26.3519 188.993 20.8142C188.038 17.9498 185.556 14.8945 182.5 15.2764C180.018 15.6584 178.49 18.1408 177.535 20.4322C176.581 23.2966 176.008 26.1609 176.008 29.0252C176.008 32.2715 176.581 35.5177 178.299 38.382C179.636 40.6735 181.927 42.774 184.41 43.5378C187.274 44.4926 188.229 43.5378 190.139 42.0102C192.43 40.2916 195.485 39.5278 197.968 37.8092C201.023 36.2815 203.123 34.181 205.033 31.8896Z" fill="white"/>
<path d="M187.657 36.4725C190.712 37.8092 193.958 39.5278 195.868 42.2012C197.968 44.8745 198.541 48.8846 196.632 51.7489C194.531 54.8042 190.521 55.3771 186.893 55.1861C182.501 54.8042 178.109 53.4675 174.29 51.1761C169.516 48.1208 165.506 41.2464 170.662 36.4725C175.054 32.4624 183.074 34.563 187.657 36.4725Z" fill="#D6BF7F"/>
</svg>
