<svg width="64" height="64" viewBox="0 0 64 64" fill="none" xmlns="http://www.w3.org/2000/svg">
<circle opacity="0.2" cx="32" cy="32" r="31.5" stroke="#00B4A4"/>
<circle opacity="0.4" cx="32.0002" cy="32" r="24.3889" stroke="#00B4A4"/>
<g clip-path="url(#clip0_1661_8020)">
<path d="M32.0007 22.0386C35.1327 19.2266 39.9727 19.32 42.99 22.3426C46.006 25.3666 46.11 30.1826 43.3047 33.324L31.998 44.6466L20.694 33.324C17.8887 30.1826 17.994 25.3586 21.0087 22.3426C24.0287 19.324 28.8594 19.2226 32.0007 22.0386ZM41.102 24.2266C39.102 22.224 35.8754 22.1426 33.782 24.0226L32.002 25.62L30.2207 24.024C28.1207 22.1413 24.9007 22.224 22.8954 24.2293C20.9087 26.216 20.8087 29.396 22.6394 31.4973L31.9994 40.872L41.3594 31.4986C43.1914 29.396 43.0914 26.22 41.102 24.2266Z" fill="#00B4A4"/>
</g>
<defs>
<clipPath id="clip0_1661_8020">
<rect width="32" height="32" fill="white" transform="translate(16 16)"/>
</clipPath>
</defs>
</svg>
