<svg width="64" height="64" viewBox="0 0 64 64" fill="none" xmlns="http://www.w3.org/2000/svg">
<circle opacity="0.2" cx="32" cy="32" r="31.5" stroke="#00B4A4"/>
<circle opacity="0.4" cx="32.0002" cy="32" r="24.3889" stroke="#00B4A4"/>
<g clip-path="url(#clip0_1661_8013)">
<path d="M23.9993 40.0001H39.9993V24.0001H23.9993V40.0001ZM34.666 42.6667H29.3327V45.3334H26.666V42.6667H22.666C22.3124 42.6667 21.9733 42.5263 21.7232 42.2762C21.4732 42.0262 21.3327 41.687 21.3327 41.3334V37.3334H18.666V34.6667H21.3327V29.3334H18.666V26.6667H21.3327V22.6667C21.3327 22.3131 21.4732 21.974 21.7232 21.7239C21.9733 21.4739 22.3124 21.3334 22.666 21.3334H26.666V18.6667H29.3327V21.3334H34.666V18.6667H37.3327V21.3334H41.3327C41.6863 21.3334 42.0254 21.4739 42.2755 21.7239C42.5255 21.974 42.666 22.3131 42.666 22.6667V26.6667H45.3327V29.3334H42.666V34.6667H45.3327V37.3334H42.666V41.3334C42.666 41.687 42.5255 42.0262 42.2755 42.2762C42.0254 42.5263 41.6863 42.6667 41.3327 42.6667H37.3327V45.3334H34.666V42.6667ZM26.666 26.6667H37.3327V37.3334H26.666V26.6667Z" fill="#00B4A4"/>
</g>
<defs>
<clipPath id="clip0_1661_8013">
<rect width="32" height="32" fill="white" transform="translate(16 16)"/>
</clipPath>
</defs>
</svg>
