<svg width="64" height="64" viewBox="0 0 64 64" fill="none" xmlns="http://www.w3.org/2000/svg">
<circle opacity="0.2" cx="32" cy="32" r="31.5" stroke="#00B4A4"/>
<circle opacity="0.4" cx="32.0008" cy="31.9997" r="24.3889" stroke="#00B4A4"/>
<g clip-path="url(#clip0_830_18714)">
<path d="M32 21.3335C40.1 21.3335 46.6667 24.9148 46.6667 29.3335V34.6668C46.6667 39.0855 40.1 42.6668 32 42.6668C24.044 42.6668 17.568 39.2122 17.34 34.9028L17.3334 34.6668V29.3335C17.3334 24.9148 23.9 21.3335 32 21.3335ZM32 37.3335C27.04 37.3335 22.6534 35.9908 20 33.9335V34.6668C20 37.1762 25.1774 40.0002 32 40.0002C38.68 40.0002 43.784 37.2935 43.9934 34.8242L44 34.6668L44.0014 33.9335C41.348 35.9895 36.9614 37.3335 32 37.3335ZM32 24.0002C25.1774 24.0002 20 26.8242 20 29.3335C20 31.8428 25.1774 34.6668 32 34.6668C38.8227 34.6668 44 31.8428 44 29.3335C44 26.8242 38.8227 24.0002 32 24.0002Z" fill="#00B4A4"/>
</g>
<defs>
<clipPath id="clip0_830_18714">
<rect width="32" height="32" fill="white" transform="translate(16 16)"/>
</clipPath>
</defs>
</svg>
