<svg width="400" height="393" viewBox="0 0 400 393" fill="none" xmlns="http://www.w3.org/2000/svg">
<path d="M202.976 392.907C163.419 392.907 125.384 381.116 92.673 359.055C84.3052 353.35 76.1276 346.884 68.7107 339.847C51.5947 358.104 43.4171 360.957 36.951 360.957C35.81 360.957 34.6689 360.767 33.718 360.577C23.0681 358.485 19.4547 352.019 18.1234 348.215C17.5529 346.694 17.3627 345.362 17.1725 343.841C8.9949 343.651 4.81104 339.847 2.71908 336.804C0.436953 333.571 -1.46483 328.056 1.57801 320.069C4.43067 312.652 11.4672 304.474 23.068 294.965C21.5466 292.303 20.2154 287.358 23.4484 280.892C23.8288 280.132 24.2091 279.181 24.7796 278.42C17.1725 262.065 12.0378 244.759 9.18511 226.882C8.80475 224.029 8.42439 220.986 8.04403 218.134C8.04403 217.753 8.04402 217.373 7.85384 216.993C7.66367 215.661 7.47352 214.14 7.47352 212.809C7.28334 211.097 7.28332 209.195 7.09314 207.484C6.90297 205.202 6.90296 203.11 6.90296 200.828C6.90296 200.637 6.90296 199.116 6.90296 199.116C6.90296 198.165 6.90296 197.404 6.90296 196.453C6.90296 170.779 11.8476 145.676 21.5467 122.094C34.8591 89.7638 56.5393 61.4274 84.4954 40.1275C89.8204 36.1337 95.3355 32.3302 100.851 28.907C131.659 10.0794 167.033 0 203.356 0C217.43 0 231.693 1.52141 245.386 4.56425C262.692 8.3678 279.237 14.4535 295.022 22.6311C295.212 22.6311 295.212 22.8213 295.402 22.8213C295.973 23.2017 296.734 23.582 297.304 23.9624C298.065 24.3427 298.826 24.7231 299.586 25.1035L300.917 25.8642C301.108 26.0543 301.298 26.0544 301.678 26.2445C304.341 27.766 307.003 29.4776 309.666 30.999C312.328 32.7106 314.991 34.4221 317.653 36.3239C318.224 36.7043 318.794 37.0847 319.365 37.6552C321.837 39.557 324.5 41.4587 326.972 43.3605C327.542 43.7409 327.923 44.1212 328.303 44.5015C339.333 53.6301 349.413 63.8997 358.161 75.1201C372.995 93.9477 384.215 115.248 391.252 138.069C391.822 139.781 392.203 141.492 392.773 143.204C394.104 147.958 395.246 152.713 396.196 157.467C398.859 170.209 400 183.331 400 196.453C400 198.355 400 200.257 400 202.349C399.239 226.311 394.295 249.893 384.976 271.954C353.787 345.553 282.47 392.907 202.976 392.907Z" fill="white"/>
<path d="M388.778 196.644C388.778 198.545 388.778 200.257 388.778 202.159C388.017 225.361 383.073 247.421 374.705 267.77C346.939 334.522 280.947 381.496 203.926 381.496C165.51 381.496 129.756 369.705 100.089 349.546C58.6299 321.4 29.1524 276.899 21.1649 225.17C20.7846 222.508 20.4042 219.655 20.0238 216.993C20.0238 216.612 20.0239 216.422 19.8337 216.042C19.6435 214.711 19.6435 213.379 19.4533 211.858C19.2631 210.146 19.2631 208.435 19.0729 206.723C18.8828 204.631 18.8828 202.539 18.8828 200.257C18.8828 199.687 18.8828 199.116 18.8828 198.545C18.8828 197.785 18.8828 197.024 18.8828 196.073C18.8828 171.35 23.8274 147.578 32.5756 126.088C45.1273 95.2791 65.8567 68.6542 91.911 48.8757C96.8556 45.0722 101.99 41.4588 107.315 38.2258C135.462 20.9196 168.553 11.0304 203.926 11.0304C217.428 11.0304 230.741 12.5518 243.482 15.2143C260.028 18.8277 275.813 24.7232 290.456 32.5205C291.027 32.9008 291.597 33.091 292.168 33.4713C292.929 33.8517 293.499 34.2321 294.26 34.6124C294.26 34.6124 294.45 34.6124 294.45 34.8026C294.83 34.9928 295.211 35.1829 295.591 35.3731C298.254 36.8945 300.916 38.416 303.579 40.1276C306.241 41.8392 308.713 43.5508 311.186 45.2624C311.756 45.6427 312.327 46.023 312.707 46.4034C315.179 48.115 317.462 50.0168 319.934 51.9186C320.314 52.2989 320.695 52.4891 321.075 52.8695C331.535 61.4275 341.044 71.1265 349.411 81.7764C363.104 99.2728 373.754 119.432 380.6 141.112C381.171 142.633 381.551 144.345 381.932 145.866C383.073 150.24 384.214 154.805 385.165 159.179C387.637 171.73 388.778 183.902 388.778 196.644Z" fill="#E7E7E7"/>
<path opacity="0.53" d="M388.778 196.644C388.778 198.545 388.778 200.257 388.778 202.159C388.017 225.361 383.073 247.421 374.705 267.77C346.939 334.522 280.947 381.496 203.926 381.496C165.51 381.496 129.756 369.705 100.089 349.546C58.6299 321.4 29.1524 276.899 21.1649 225.17C20.7846 222.508 20.4042 219.655 20.0238 216.993C20.0238 216.612 20.0239 216.422 19.8337 216.042C19.6435 214.711 19.6435 213.379 19.4533 211.858C19.2631 210.146 19.2631 208.435 19.0729 206.723C18.8828 204.631 18.8828 202.539 18.8828 200.257C18.8828 199.687 18.8828 199.116 18.8828 198.545C18.8828 197.785 18.8828 197.024 18.8828 196.073C18.8828 171.35 23.8274 147.578 32.5756 126.088C45.1273 95.2791 65.8567 68.6542 91.911 48.8757C96.8556 45.0722 101.99 41.4588 107.315 38.2258C135.462 20.9196 168.553 11.0304 203.926 11.0304C217.428 11.0304 230.741 12.5518 243.482 15.2143C260.028 18.8277 275.813 24.7232 290.456 32.5205C291.027 32.9008 291.597 33.091 292.168 33.4713C292.929 33.8517 293.499 34.2321 294.26 34.6124C294.26 34.6124 294.45 34.6124 294.45 34.8026C294.83 34.9928 295.211 35.1829 295.591 35.3731C298.254 36.8945 300.916 38.416 303.579 40.1276C306.241 41.8392 308.713 43.5508 311.186 45.2624C311.756 45.6427 312.327 46.023 312.707 46.4034C315.179 48.115 317.462 50.0168 319.934 51.9186C320.314 52.2989 320.695 52.4891 321.075 52.8695C331.535 61.4275 341.044 71.1265 349.411 81.7764C363.104 99.2728 373.754 119.432 380.6 141.112C381.171 142.633 381.551 144.345 381.932 145.866C383.073 150.24 384.214 154.805 385.165 159.179C387.637 171.73 388.778 183.902 388.778 196.644Z" fill="#B4E2E0"/>
<path d="M198.413 156.706H47.0312C50.8348 151.001 56.9205 147.007 63.5767 145.866C71.1838 144.535 79.1712 146.817 84.8766 151.952C92.864 137.498 108.268 127.039 124.814 127.039C141.359 127.039 157.715 138.83 160.948 154.805C166.653 149.67 174.831 147.198 182.438 148.148C188.523 148.909 194.229 151.952 198.413 156.706Z" fill="#E7E7E7"/>
<path d="M256.608 324.633H105.227C109.03 318.928 115.116 314.934 121.772 313.793C129.379 312.462 137.367 314.744 143.072 319.879C151.059 305.425 166.464 294.966 183.009 294.966C199.555 294.966 215.91 306.757 219.143 322.731C224.848 317.597 233.026 315.124 240.633 316.075C246.719 316.836 252.614 320.069 256.608 324.633Z" fill="#E7E7E7"/>
<path d="M381.939 146.437H263.078C266.882 140.731 272.967 136.738 279.624 135.597C287.04 134.265 295.218 136.548 300.923 141.682C308.911 127.229 324.315 116.769 340.861 116.769C357.406 116.769 373.571 128.37 376.994 144.535C378.136 143.584 379.277 142.633 380.608 141.873C380.988 143.204 381.559 144.915 381.939 146.437Z" fill="#E7E7E7"/>
<path d="M312.721 46.9741C311.579 50.3973 310.058 53.8204 308.156 57.2436C302.451 67.323 293.893 75.5007 284.004 81.206L283.814 81.3962C283.814 81.3962 283.623 81.3962 283.623 81.5863C283.433 81.7765 283.243 81.7765 283.053 81.7765C282.672 81.9667 282.292 82.1569 282.102 82.3471C280.2 83.298 278.298 84.2489 276.397 85.0096C271.832 86.9113 267.078 88.2426 262.323 89.1934C259.09 89.764 255.857 90.1443 252.815 90.1443C251.864 90.1443 250.913 90.1443 249.962 90.1443H249.011C248.821 90.1443 248.631 90.1443 248.44 90.1443C241.784 89.764 235.128 88.623 228.662 87.1015C228.282 86.9114 227.711 86.9113 227.141 86.7212C217.442 84.439 207.743 81.3962 197.663 79.4944C197.473 79.4944 197.093 79.4944 196.902 79.3042L197.663 77.5927C202.227 66.5624 206.982 55.532 213.067 45.4526C213.067 45.4526 213.067 45.2625 213.258 45.2625C213.448 44.8821 213.638 44.5018 213.828 44.3116C215.73 41.0786 218.012 38.0357 220.294 34.9928C223.908 30.4286 228.092 26.2447 232.846 22.6313C233.416 22.2509 233.797 21.8706 234.177 21.4903C237.03 19.3983 240.073 17.4965 243.306 15.9751C259.851 19.5885 275.636 25.484 290.28 33.2812C290.85 33.6616 291.421 33.8518 291.991 34.2321C292.752 34.6125 293.322 34.9929 294.083 35.3732C294.083 35.3732 294.273 35.3732 294.273 35.5634C294.654 35.7536 295.034 35.9437 295.414 36.1339C298.077 37.6553 300.739 39.1768 303.402 40.8884C306.064 42.6 308.537 44.3116 311.009 46.0232C311.77 46.2133 312.34 46.5937 312.721 46.9741Z" fill="#00B4A4"/>
<path d="M292.178 34.0418C289.896 34.8026 287.804 35.5633 285.712 36.324C278.486 38.7963 271.259 41.4588 264.032 44.1213C263.462 44.3115 263.081 44.5016 262.511 44.6918C257.756 46.4034 253.192 48.3052 248.628 50.2069C245.205 51.5382 242.162 53.0596 238.929 54.3909C238.358 54.581 237.788 54.9614 237.407 55.1516C221.432 62.5685 208.5 70.5559 197.66 79.6845C197.47 79.8746 197.28 80.0648 197.09 80.255C196.899 80.4452 196.519 80.4452 196.329 80.4452C196.329 80.4452 196.139 80.4452 196.139 80.255C195.949 79.8747 195.949 79.4943 196.139 79.3041C196.709 78.9238 197.09 78.3532 197.66 77.9729C208.31 69.2247 220.672 61.6176 235.886 54.3909C236.456 54.2007 237.027 53.8203 237.597 53.6302C241.021 52.1087 244.444 50.5873 248.057 49.0659C252.812 47.1641 257.376 45.2623 262.13 43.5507C262.511 43.3605 263.081 43.1704 263.462 42.9802C270.688 40.3177 277.915 37.6552 285.142 35.1829C286.853 34.6124 288.565 34.0419 290.467 33.2811C291.037 33.2811 291.608 33.6615 292.178 34.0418Z" fill="#172C45"/>
<path d="M228.467 87.1015C227.896 86.9113 227.516 86.9113 227.136 86.7211C231.51 76.6417 234.933 65.9917 237.405 54.9615V54.7713C236.835 54.5811 236.454 54.3909 235.884 54.2008C228.467 51.1579 220.86 48.1151 213.062 45.6428C213.253 45.2624 213.633 44.8821 213.823 44.3116C221.811 46.974 229.798 50.0168 237.595 53.2499C237.976 53.44 238.166 53.4401 238.546 53.6302C238.737 53.8204 238.927 54.0106 238.927 54.2008V54.3909C236.454 65.8016 232.841 76.6417 228.467 87.1015Z" fill="#172C45"/>
<path d="M249.764 90.1443C249.194 90.1443 248.623 90.1443 248.243 90.1443C255.279 75.881 260.224 60.2865 262.506 44.6919C262.506 44.3116 262.506 44.1214 262.696 43.741C262.506 43.5509 262.506 43.3607 262.316 43.1705C255.089 33.4715 244.629 26.0546 233.219 22.4412C233.789 22.0608 234.17 21.6805 234.55 21.3001C246.151 25.2938 256.611 32.7107 263.647 42.6C263.837 42.7901 263.837 42.9803 264.028 42.9803C264.218 43.1705 264.218 43.3607 264.218 43.5508C264.218 43.741 264.218 43.741 264.218 43.9312C261.745 59.716 256.801 75.6909 249.764 90.1443Z" fill="#172C45"/>
<path d="M295.596 35.9436C295.026 40.1275 294.265 44.5016 293.504 48.6855C293.314 50.207 292.934 51.5382 292.554 53.0596C292.363 53.6301 292.363 54.3908 292.173 54.9614C290.081 64.0899 287.419 72.8381 283.996 81.3961C283.996 81.3961 283.805 81.3961 283.805 81.5862C283.805 81.5862 283.615 81.5862 283.615 81.7764C283.425 81.9666 283.235 81.9666 283.045 81.9666C282.664 82.1568 282.284 82.3469 282.094 82.5371C285.517 73.9791 288.37 65.0408 290.462 55.9123C290.652 55.3417 290.842 54.581 290.842 54.0105C291.032 52.8694 291.412 51.5382 291.603 50.3971C292.554 45.4525 293.504 40.5079 294.075 35.5633C294.075 35.3731 294.075 35.3731 294.075 35.1829C294.075 35.1829 294.265 35.1829 294.265 35.3731C294.836 35.3731 295.216 35.7534 295.596 35.9436Z" fill="#172C45"/>
<path opacity="0.23" d="M312.715 46.974C311.574 50.3972 310.053 53.8203 308.151 57.2435C302.446 67.3229 293.888 75.5006 283.998 81.2059L283.808 81.3961C283.808 81.3961 283.618 81.3961 283.618 81.5862C283.428 81.7764 283.238 81.7764 283.048 81.7764C282.667 81.9666 282.287 82.1568 282.097 82.347C280.195 83.2979 278.293 84.2488 276.391 85.0095C271.827 86.9112 267.073 88.2425 262.318 89.1933C260.797 75.8809 273.348 56.1025 279.624 48.8757C283.998 43.7409 288.943 39.3668 294.458 35.3731L294.648 35.1829C295.029 35.3731 295.409 35.5633 295.789 35.7535C298.452 37.2749 301.114 38.7963 303.777 40.5079C306.439 42.2195 308.912 43.9311 311.384 45.6427C311.764 46.2132 312.335 46.5936 312.715 46.974Z" fill="#172C45"/>
<path d="M353.407 89.3836C351.315 98.8925 347.131 108.021 341.045 115.628C340.474 116.389 339.904 117.15 339.143 117.72C338.763 118.1 338.382 118.481 338.192 118.861C333.628 123.806 328.683 128.18 323.358 132.174C322.978 132.364 322.598 132.744 322.217 133.124C314.23 139.21 305.672 144.725 298.065 151.381C297.875 151.572 297.684 151.762 297.494 151.762C297.304 151.191 296.924 150.621 296.543 150.05C290.838 139.59 285.323 128.941 281.519 117.72C281.519 117.53 281.329 117.34 281.329 116.959C281.329 116.769 281.139 116.579 281.139 116.199C279.998 112.585 278.857 108.972 278.096 105.168C276.955 99.463 276.194 93.3773 276.385 87.4818C276.385 86.9113 276.385 86.3408 276.385 85.7702C276.385 85.3899 276.385 85.1997 276.385 85.0095C276.955 76.2614 279.237 67.7034 283.611 60.0963C284.182 58.9552 284.943 58.0043 285.703 56.8632C285.703 56.8632 285.703 56.6731 285.893 56.6731C287.605 54.2008 289.697 52.1088 291.789 50.0169C292.36 49.4463 292.93 48.8758 293.691 48.3052C296.734 45.4526 300.157 42.9803 303.77 40.508C306.433 42.2196 308.905 43.9312 311.377 45.6428C311.948 46.0231 312.518 46.4035 312.899 46.7838C315.371 48.4954 317.653 50.3972 320.125 52.299C320.506 52.6793 320.886 52.8695 321.267 53.2499C331.726 61.8078 341.235 71.5069 349.603 82.1569C350.744 84.6292 352.265 86.9113 353.407 89.3836Z" fill="#00B4A4"/>
<path d="M321.082 53.44C320.892 54.2008 320.512 54.9615 320.322 55.7222C317.659 62.7588 314.997 69.9855 312.524 77.4024C312.334 77.973 312.144 78.3533 311.954 78.9238C310.432 83.6783 308.911 88.4327 307.39 92.997C306.439 96.4202 305.488 99.8434 304.537 103.076C304.347 103.647 304.157 104.217 304.157 104.788C299.783 121.904 297.691 136.928 297.881 151.001V151.762C297.881 151.952 297.691 152.332 297.5 152.523C297.5 152.523 297.31 152.523 297.12 152.523C296.74 152.523 296.359 152.142 296.359 151.762C296.359 151.191 296.359 150.431 296.359 149.67C296.359 135.977 298.261 121.524 302.445 105.168C302.635 104.598 302.825 103.837 303.016 103.267C303.966 99.6532 304.917 96.0398 306.058 92.4264C307.58 87.672 309.101 82.7274 310.813 77.9729C311.003 77.5926 311.193 77.0221 311.383 76.6417C313.856 69.415 316.518 62.1882 319.181 54.9614C319.561 54.0106 319.751 53.0597 320.132 52.1088C320.322 52.8695 320.702 53.2499 321.082 53.44Z" fill="#172C45"/>
<path d="M323.358 132.364C322.977 132.744 322.597 132.934 322.217 133.315C317.082 123.616 311.186 114.107 304.15 105.168L303.959 104.978C303.389 105.168 303.009 105.549 302.438 105.739C295.211 109.542 288.175 113.536 281.328 117.91C281.138 117.53 280.948 116.959 280.758 116.579C287.985 112.015 295.401 107.831 302.818 103.837C303.199 103.647 303.389 103.457 303.769 103.267C303.959 103.076 304.34 103.267 304.53 103.267C304.53 103.267 304.72 103.267 304.72 103.457C311.947 112.585 318.033 122.284 323.358 132.364Z" fill="#172C45"/>
<path d="M339.144 117.72C338.764 118.1 338.383 118.481 338.193 118.861C331.727 104.408 322.599 90.7149 311.949 78.9238C311.758 78.7337 311.568 78.5435 311.378 78.3533C311.188 78.3533 310.808 78.3533 310.617 78.3533C298.636 77.7828 286.275 81.206 276.195 87.8622C276.195 87.2917 276.195 86.7212 276.195 86.1506C286.465 79.6846 299.017 76.4515 311.188 77.0221C311.378 77.0221 311.568 77.0221 311.759 77.0221C311.949 77.0221 312.139 77.2123 312.329 77.2123C312.329 77.4024 312.519 77.4024 312.519 77.4024C323.359 89.1935 332.488 103.076 339.144 117.72Z" fill="#172C45"/>
<path d="M312.707 46.974C307.001 47.9249 301.106 50.0168 295.21 53.0596C294.259 53.6302 293.118 54.2007 292.167 54.7713C291.597 55.1516 291.026 55.3418 290.456 55.7222C288.174 57.0534 285.892 58.5748 283.609 60.0962C284.18 58.9552 284.941 58.0042 285.701 56.8632C287.413 55.7221 289.125 54.5811 290.836 53.6302C291.407 53.2498 291.977 52.8695 292.548 52.6793C293.118 52.299 293.879 51.9186 294.64 51.5382C300.345 48.6856 305.86 46.5936 311.185 45.4525C311.756 46.2132 312.326 46.5936 312.707 46.974Z" fill="#172C45"/>
<path d="M388.78 196.644C388.78 198.545 388.78 200.257 388.78 202.159C324.88 166.596 260.03 132.554 194.609 99.6531C163.8 101.365 132.991 105.929 103.323 114.677C102.563 111.064 101.232 109.923 100.281 106.119C123.672 100.794 147.064 94.5183 169.886 87.2916C144.021 74.3595 117.967 61.8078 91.7227 49.4462C96.6673 45.6427 101.802 42.0293 107.127 38.7963C204.688 64.0899 292.931 117.91 384.976 159.939C387.639 171.73 388.78 183.902 388.78 196.644Z" fill="#172C45"/>
<path d="M335.53 298.769C342.186 268.341 349.032 238.102 356.83 207.864C354.167 207.864 352.646 208.815 349.983 209.766C337.431 236.01 324.69 262.445 312.138 288.69C307.383 298.389 302.249 308.658 294.832 316.075C273.532 323.492 252.042 330.339 230.361 336.614C225.797 337.946 221.043 339.277 216.098 338.897C209.822 338.516 203.927 335.473 197.841 333.952C187.191 331.099 175.971 332.811 164.94 334.713C149.346 337.375 133.941 340.798 118.727 344.602C112.451 346.123 106.176 347.835 100.09 349.737C129.758 369.895 165.511 381.686 203.927 381.686C280.949 381.686 346.94 334.713 374.706 267.77C362.155 278.8 349.793 290.211 335.53 298.769Z" fill="#172C45"/>
<path d="M291.981 323.492C284.944 323.682 277.908 324.063 270.871 324.633C268.969 324.823 267.068 324.823 265.166 325.014C265.166 325.014 265.166 325.014 265.166 324.823C264.976 324.633 264.785 324.633 264.405 324.633C246.528 311.511 232.645 300.29 220.664 289.45C219.713 278.8 219.143 267.96 218.953 257.31C218.953 256.74 218.572 256.359 218.002 256.359C217.431 256.359 217.051 256.74 217.051 257.31C217.241 268.15 217.811 279.181 218.762 289.831C218.762 290.021 218.953 290.211 219.143 290.401C231.124 301.241 245.197 312.652 263.074 325.774C258.7 330.529 253.945 334.903 249.191 339.277C248.81 339.657 248.81 340.228 249.191 340.608C249.381 340.798 249.571 340.988 249.952 340.988C250.142 340.988 250.332 340.988 250.522 340.798C255.467 336.614 260.221 332.05 264.595 327.296C270.491 331.289 276.576 335.093 282.662 338.516C282.852 338.516 283.042 338.706 283.042 338.706C283.423 338.706 283.613 338.516 283.803 338.136C283.993 337.755 283.993 337.185 283.423 336.805C277.908 333.572 272.392 330.339 267.068 326.725C268.399 326.725 269.73 326.535 271.251 326.535C278.098 326.155 285.325 325.584 292.171 325.394C292.741 325.394 293.122 325.014 293.122 324.443C292.932 323.872 292.551 323.492 291.981 323.492Z" fill="#172C45"/>
<path opacity="0.16" d="M291.981 323.492C284.944 323.682 277.908 324.063 270.871 324.633C268.969 324.823 267.068 324.823 265.166 325.014C265.166 325.014 265.166 325.014 265.166 324.823C264.976 324.633 264.785 324.633 264.405 324.633C246.528 311.511 232.645 300.29 220.664 289.45C219.713 278.8 219.143 267.96 218.953 257.31C218.953 256.74 218.572 256.359 218.002 256.359C217.431 256.359 217.051 256.74 217.051 257.31C217.241 268.15 217.811 279.181 218.762 289.831C218.762 290.021 218.953 290.211 219.143 290.401C231.124 301.241 245.197 312.652 263.074 325.774C258.7 330.529 253.945 334.903 249.191 339.277C248.81 339.657 248.81 340.228 249.191 340.608C249.381 340.798 249.571 340.988 249.952 340.988C250.142 340.988 250.332 340.988 250.522 340.798C255.467 336.614 260.221 332.05 264.595 327.296C270.491 331.289 276.576 335.093 282.662 338.516C282.852 338.516 283.042 338.706 283.042 338.706C283.423 338.706 283.613 338.516 283.803 338.136C283.993 337.755 283.993 337.185 283.423 336.805C277.908 333.572 272.392 330.339 267.068 326.725C268.399 326.725 269.73 326.535 271.251 326.535C278.098 326.155 285.325 325.584 292.171 325.394C292.741 325.394 293.122 325.014 293.122 324.443C292.932 323.872 292.551 323.492 291.981 323.492Z" fill="#D6BF7F"/>
<path d="M308.336 147.578C305.674 161.841 298.637 180.669 298.637 180.669C298.637 180.669 323.17 269.291 262.884 296.297C260.412 297.438 257.939 298.389 255.277 299.34C185.292 321.971 134.894 296.677 110.362 269.482C110.362 269.482 88.6814 301.241 68.3324 324.823C55.5905 339.467 43.4191 351.068 37.3334 349.737C21.5487 346.504 35.4317 329.768 36.0022 329.007C35.0513 329.388 7.66569 339.657 13.371 324.443C16.0335 317.216 25.9228 308.468 35.6218 300.861C46.0816 292.874 56.7315 286.407 57.8726 285.647C56.9217 286.027 51.5967 288.309 46.0816 290.021C38.8548 292.113 31.6281 292.873 34.8611 286.217C40.7566 273.856 71.185 246.09 71.185 246.09C71.185 246.09 71.3752 245.9 71.7556 245.709C80.3135 238.293 188.905 144.155 200.696 132.934C213.057 121.333 229.223 86.9112 269.35 94.1379C282.472 96.4201 291.601 101.555 297.686 107.831C309.668 120.192 310.048 137.879 308.336 147.578Z" fill="#D6BF7F"/>
<path d="M308.335 147.578C307.384 153.283 305.482 159.749 303.771 165.455C301.108 174.013 298.636 180.669 298.636 180.669C298.636 180.669 323.169 269.292 262.883 296.297C253.754 292.874 246.337 284.506 246.147 274.617C242.534 278.8 237.589 281.843 232.264 282.414C226.749 282.984 221.044 280.892 217.811 276.328C215.528 272.905 214.958 268.721 214.768 264.727C214.578 257.31 217.24 249.893 221.614 243.998C218.571 244.378 215.528 244.759 212.676 243.618C209.443 242.096 207.351 238.673 206.78 235.06C206.21 231.446 206.78 227.833 207.731 224.41C209.823 215.281 214.197 206.723 222.185 201.779C218.571 202.159 214.578 201.779 211.535 199.687C207.731 197.024 206.21 191.699 206.97 187.135C207.731 182.571 209.823 178.387 213.056 175.154C211.915 174.773 210.964 174.203 210.013 173.442C207.351 171.54 205.449 168.497 204.688 165.264C203.547 160.89 204.118 156.326 205.639 152.142C205.639 151.952 205.829 151.762 205.829 151.382C206.02 151.001 206.21 150.431 206.4 150.05C211.345 137.879 223.896 127.799 237.019 127.229C233.595 121.524 235.877 113.917 240.632 109.352C245.386 104.788 252.043 102.886 258.509 101.745C271.631 99.463 286.084 100.794 297.115 107.831C304.151 115.058 307.384 123.806 308.525 131.603C308.906 133.695 308.906 135.597 309.096 137.499C309.096 141.112 308.715 144.725 308.335 147.578Z" fill="#E7E7E7"/>
<path d="M308.904 137.308C308.904 135.407 308.713 133.315 308.333 131.413C307.192 123.425 303.959 114.677 296.922 107.641C285.892 100.604 272.58 98.1318 259.457 100.414C252.991 101.555 245.194 104.788 240.44 109.352C235.685 113.916 233.593 121.714 236.826 127.229C236.066 125.898 227.317 129.321 226.176 129.701C222.943 131.032 219.9 133.124 217.238 135.407C209.251 142.253 200.312 154.995 203.735 166.025C204.686 169.258 206.968 171.921 209.821 173.442C210.772 174.013 211.913 174.393 213.054 174.773C217.428 175.914 222.373 174.583 225.416 171.35C226.747 175.154 229.6 178.006 233.213 179.908C236.826 181.81 240.82 182.761 245.004 182.951C249.378 183.331 253.942 182.761 257.936 181.049C261.93 179.147 265.353 175.914 266.684 171.73C269.347 174.583 272.58 176.675 276.193 178.197C279.806 179.718 283.99 180.288 287.604 178.957C294.07 176.675 297.873 169.829 299.205 163.173C300.536 164.123 301.867 164.884 303.388 165.455C305.1 159.749 307.002 153.283 307.953 147.578C308.713 144.725 309.094 141.112 308.904 137.308Z" fill="white"/>
<path d="M267.45 130.652C267.45 135.787 263.266 139.971 258.131 139.971C252.996 139.971 248.812 135.787 248.812 130.652C248.812 125.517 252.996 121.333 258.131 121.333C263.266 121.333 267.45 125.517 267.45 130.652Z" fill="#172C45"/>
<path d="M324.119 118.671C317.653 117.91 310.236 117.53 303.77 116.199C299.966 123.235 294.071 127.799 286.844 131.413C284.372 132.744 281.709 133.885 279.047 134.646C292.74 132.364 306.432 129.131 319.555 124.757C321.647 123.996 323.548 123.045 325.07 121.524C326.211 120.573 325.64 118.861 324.119 118.671Z" fill="#172C45"/>
<path d="M96.4776 259.402C85.8276 265.298 75.7482 272.715 65.6688 279.371C59.3929 283.555 57.4912 286.598 45.51 289.641C38.2833 291.732 31.0565 292.493 34.2895 285.837C40.185 273.475 70.6134 245.709 70.6134 245.709C70.6134 245.709 70.8036 245.519 71.184 245.329L71.3741 245.519C73.4661 248.372 77.65 248.752 81.2634 247.992C84.3062 247.421 87.1589 246.47 89.8214 245.139C88.2999 247.801 88.2999 251.225 89.6312 253.887C90.9624 256.74 93.6249 258.832 96.4776 259.402Z" fill="#E7E7E7"/>
<path d="M56.3477 285.457L187.57 200.637" stroke="#172C45" stroke-width="0.5" stroke-miterlimit="10" stroke-linecap="round" stroke-linejoin="round"/>
<path d="M68.1409 324.633C55.399 339.277 43.2276 350.878 37.1419 349.546C21.3572 346.313 35.2402 329.578 35.8107 328.817C34.8598 329.197 7.47428 339.467 13.1796 324.253C15.8421 317.026 25.7313 308.278 35.4304 300.671C36.5714 301.812 37.7125 302.953 39.2339 303.523C42.8473 305.045 46.841 303.333 50.2642 301.622C48.1723 304.855 48.933 309.609 51.7856 312.272C54.6383 314.934 59.3927 315.314 62.4356 313.032C62.2454 315.695 62.2454 318.357 63.3865 320.639C63.957 322.731 65.8588 324.443 68.1409 324.633Z" fill="white"/>
<path d="M209.644 352.78C209.453 352.78 209.263 352.78 209.073 352.589C190.626 338.897 176.172 327.296 163.811 316.075C163.621 315.885 163.43 315.695 163.43 315.505C162.48 304.665 161.909 293.825 161.719 282.984C161.719 282.414 162.099 282.034 162.67 282.034C163.24 282.034 163.621 282.414 163.621 282.984C163.811 293.634 164.381 304.475 165.332 315.124C177.694 326.155 191.957 337.756 210.214 351.258C210.594 351.639 210.785 352.209 210.404 352.589C210.404 352.78 210.024 352.78 209.644 352.78Z" fill="#D6BF7F"/>
<path d="M194.425 366.663C194.235 366.663 193.854 366.472 193.664 366.282C193.284 365.902 193.284 365.331 193.664 364.951C198.799 360.387 203.934 355.632 208.498 350.497C208.878 350.117 209.449 350.117 209.829 350.497C210.21 350.878 210.21 351.448 209.829 351.829C205.075 356.963 200.13 361.718 194.805 366.282C194.805 366.662 194.615 366.663 194.425 366.663Z" fill="#D6BF7F"/>
<path d="M227.71 364.38C227.52 364.38 227.329 364.38 227.329 364.19C221.054 360.577 214.587 356.583 208.502 352.589C208.121 352.399 207.931 352.019 208.121 351.639C208.312 351.258 208.502 350.878 209.072 350.878C211.355 350.688 213.637 350.497 215.919 350.497C222.765 350.117 229.992 349.547 237.028 349.356C237.599 349.356 237.979 349.737 237.979 350.307C237.979 350.878 237.599 351.258 237.028 351.258C230.182 351.448 222.955 351.829 216.109 352.399C214.778 352.399 213.446 352.589 211.925 352.589C217.25 356.013 222.765 359.436 228.28 362.669C228.661 362.859 228.851 363.43 228.661 364C228.28 364.19 227.9 364.38 227.71 364.38Z" fill="#D6BF7F"/>
<g opacity="0.78">
<path d="M209.644 352.78C209.453 352.78 209.263 352.78 209.073 352.589C190.626 338.897 176.172 327.296 163.811 316.075C163.621 315.885 163.43 315.695 163.43 315.505C162.48 304.665 161.909 293.825 161.719 282.984C161.719 282.414 162.099 282.034 162.67 282.034C163.24 282.034 163.621 282.414 163.621 282.984C163.811 293.634 164.381 304.475 165.332 315.124C177.694 326.155 191.957 337.756 210.214 351.258C210.594 351.639 210.785 352.209 210.404 352.589C210.404 352.78 210.024 352.78 209.644 352.78Z" fill="#172C45"/>
<path d="M194.425 366.663C194.235 366.663 193.854 366.472 193.664 366.282C193.284 365.902 193.284 365.331 193.664 364.951C198.799 360.387 203.934 355.632 208.498 350.497C208.878 350.117 209.449 350.117 209.829 350.497C210.21 350.878 210.21 351.448 209.829 351.829C205.075 356.963 200.13 361.718 194.805 366.282C194.805 366.662 194.615 366.663 194.425 366.663Z" fill="#172C45"/>
<path d="M227.71 364.38C227.52 364.38 227.329 364.38 227.329 364.19C221.054 360.577 214.587 356.583 208.502 352.589C208.121 352.399 207.931 352.019 208.121 351.639C208.312 351.258 208.502 350.878 209.072 350.878C211.355 350.688 213.637 350.497 215.919 350.497C222.765 350.117 229.992 349.547 237.028 349.356C237.599 349.356 237.979 349.737 237.979 350.307C237.979 350.878 237.599 351.258 237.028 351.258C230.182 351.448 222.955 351.829 216.109 352.399C214.778 352.399 213.446 352.589 211.925 352.589C217.25 356.013 222.765 359.436 228.28 362.669C228.661 362.859 228.851 363.43 228.661 364C228.28 364.19 227.9 364.38 227.71 364.38Z" fill="#172C45"/>
</g>
<path d="M77.6477 136.357C75.9361 146.056 70.9915 154.995 64.5254 162.412C58.2496 170.019 50.8326 176.485 43.4157 182.951C34.6675 190.938 26.68 198.736 19.0729 206.913C18.8828 204.821 18.8828 202.729 18.8828 200.447C18.8828 199.877 18.8828 199.306 18.8828 198.736C18.8828 197.975 18.8828 197.214 18.8828 196.263C18.8828 171.54 23.8274 147.768 32.5756 126.278C42.4648 113.156 56.538 103.076 70.9915 95.0889C71.1816 94.8987 71.3718 94.8987 71.562 94.7086C71.562 94.8987 71.562 95.2791 71.7522 95.4693C72.703 99.8433 75.1754 103.267 75.9361 107.641C77.6477 117.34 79.1691 126.849 77.6477 136.357Z" fill="#00B4A4"/>
<path d="M118.915 170.589C118.915 170.78 118.915 170.78 118.725 170.97C117.584 174.963 116.823 179.147 115.872 183.141C114.16 189.417 112.449 195.693 109.786 201.778C108.075 206.153 105.793 210.336 102.179 213.379C99.5167 215.661 96.2837 217.183 92.8605 218.514C70.6097 227.072 45.316 224.41 20.9733 225.361C20.593 222.698 20.2126 219.845 19.8323 217.183C19.8323 216.803 19.8323 216.612 19.6421 216.232C19.4519 214.901 19.4519 213.569 19.2617 212.048C25.7278 205.962 31.8134 199.306 38.0893 193.221C50.4508 181.239 64.7142 169.829 81.64 166.976C93.6212 164.884 105.793 167.356 117.584 170.399C118.154 170.399 118.534 170.399 118.915 170.589Z" fill="#00B4A4"/>
<path d="M72.5128 94.7086C72.3227 95.0889 72.1325 95.2791 71.9423 95.6595C61.2924 111.825 53.1147 130.462 45.1273 148.529C41.3237 157.277 37.33 166.405 32.9559 174.963C28.772 183.712 24.0176 192.27 18.8828 200.637C18.8828 200.067 18.8828 199.496 18.8828 198.926C23.6373 190.938 28.0113 182.761 32.1952 174.583C36.3791 166.025 40.3729 156.897 44.1764 148.148C52.1639 130.082 60.3415 111.444 70.9915 95.2791C71.1816 94.8987 71.3718 94.5184 71.7522 94.138C71.9423 93.9478 72.1325 93.9478 72.3227 93.9478C72.5128 94.3282 72.5128 94.5184 72.5128 94.7086Z" fill="#172C45"/>
<path d="M119.481 170.399C119.481 170.589 119.481 170.78 119.101 170.97C118.911 170.97 118.72 170.97 118.72 171.16C97.9911 176.485 77.2617 186.754 57.8636 196.834C45.1217 203.49 32.57 210.337 20.0183 217.183C20.0183 216.803 20.0183 216.612 19.8281 216.232C32.1897 209.386 44.9315 202.539 57.4833 196.073C76.6912 185.994 97.2304 175.724 117.77 170.399C118.15 170.209 118.53 170.209 118.911 170.019C119.291 170.019 119.481 170.019 119.481 170.399Z" fill="#172C45"/>
<path d="M336.096 301.241C333.244 293.634 328.68 286.598 323.164 280.702C311.373 268.15 295.018 260.543 284.178 247.231C271.436 231.446 268.583 209.956 269.344 189.797C273.148 191.319 276.951 190.938 280.755 192.27C288.362 195.122 296.159 198.165 302.435 203.49C308.901 209.005 313.085 216.612 315.938 224.6C318.79 232.587 320.312 240.955 321.833 249.133C325.637 267.39 330.391 283.174 336.096 301.241Z" fill="#00B4A4"/>
<path d="M335.528 300.671C335.528 285.837 330.774 271.574 327.16 257.12C323.737 242.667 321.645 227.262 326.97 213.379C330.774 203.49 338.191 195.312 345.798 187.705C348.27 190.368 351.313 192.84 353.785 195.503C357.589 199.496 361.583 203.68 364.816 208.054C367.098 211.287 369.38 214.901 369.95 218.704C370.521 221.747 370.14 224.79 369.57 227.833C365.386 254.267 344.657 275.948 335.528 300.671Z" fill="#00B4A4"/>
<path d="M335.523 299.72C335.143 299.91 334.953 299.91 334.762 299.72C328.106 283.745 320.119 268.15 310.61 253.697C306.236 246.85 301.291 240.004 296.537 233.158C286.457 219.085 276.188 204.441 268.961 189.227C268.961 189.036 268.961 188.846 269.151 188.656C269.341 188.656 269.531 188.656 269.722 188.846C276.948 204.061 287.408 218.514 297.297 232.587C302.052 239.243 306.996 246.28 311.561 253.126C321.07 267.58 329.247 283.174 335.713 299.149C335.713 299.53 335.713 299.53 335.523 299.72Z" fill="#172C45"/>
<path d="M336.288 299.91C336.288 300.1 336.098 300.1 335.908 300.1C335.717 300.1 335.527 299.91 335.527 299.72C335.718 281.273 336.478 262.825 337.619 244.378C338.76 225.36 340.282 205.392 345.417 187.705C345.417 187.515 345.607 187.325 345.797 187.515C345.987 187.515 346.177 187.705 345.987 187.895C340.852 205.582 339.331 225.551 338.19 244.378C337.239 262.635 336.668 281.273 336.288 299.91C336.288 299.72 336.288 299.72 336.288 299.91Z" fill="#172C45"/>
</svg>
