<svg width="64" height="64" viewBox="0 0 64 64" fill="none" xmlns="http://www.w3.org/2000/svg">
<circle opacity="0.2" cx="32" cy="32" r="31.5" stroke="#00B4A4"/>
<circle opacity="0.4" cx="32.0009" cy="31.9997" r="24.3889" stroke="#00B4A4"/>
<g clip-path="url(#clip0_830_18721)">
<path d="M34.6666 35.0028V37.7895C33.4599 37.3628 32.1683 37.232 30.9005 37.4079C29.6327 37.5838 28.4256 38.0613 27.3806 38.8004C26.3355 39.5395 25.4831 40.5186 24.8949 41.6554C24.3066 42.7922 23.9997 44.0535 24 45.3335L21.3333 45.3322C21.3329 43.704 21.7052 42.0974 22.4217 40.6354C23.1382 39.1733 24.1799 37.8947 25.4669 36.8975C26.754 35.9003 28.2522 35.211 29.8469 34.8824C31.4415 34.5537 33.0902 34.5945 34.6666 35.0015V35.0028ZM32 33.3335C27.58 33.3335 24 29.7535 24 25.3335C24 20.9135 27.58 17.3335 32 17.3335C36.42 17.3335 40 20.9135 40 25.3335C40 29.7535 36.42 33.3335 32 33.3335ZM32 30.6668C34.9466 30.6668 37.3333 28.2802 37.3333 25.3335C37.3333 22.3868 34.9466 20.0002 32 20.0002C29.0533 20.0002 26.6666 22.3868 26.6666 25.3335C26.6666 28.2802 29.0533 30.6668 32 30.6668ZM39.724 42.5522L44.4373 37.8388L46.324 39.7242L39.724 46.3242L35.0093 41.6095L36.896 39.7242L39.7226 42.5522H39.724Z" fill="#00B4A4"/>
</g>
<defs>
<clipPath id="clip0_830_18721">
<rect width="32" height="32" fill="white" transform="translate(16 16)"/>
</clipPath>
</defs>
</svg>
