<svg width="391" height="300" viewBox="0 0 391 300" fill="none" xmlns="http://www.w3.org/2000/svg">
<path opacity="0.05" fill-rule="evenodd" clip-rule="evenodd" d="M195.25 345.5C303.252 345.5 390.5 258.252 390.5 150.25C390.5 42.2475 303.252 -45 195.25 -45C87.2475 -45 0 42.2475 0 150.25C0 257.868 87.2475 345.5 195.25 345.5Z" fill="#201F23"/>
<path fill-rule="evenodd" clip-rule="evenodd" d="M39.2041 94.9038H350.912C328.236 30.7172 267.124 -15.4048 194.866 -15.4048C123.377 -15.0204 61.8808 30.7172 39.2041 94.9038Z" fill="white"/>
<path fill-rule="evenodd" clip-rule="evenodd" d="M39.205 205.212H351.298C357.447 187.916 360.522 169.467 360.522 150.25C360.522 131.032 357.063 112.199 350.913 95.2879H39.205C33.0553 112.584 29.5962 131.032 29.5962 150.25C29.9805 169.467 33.0553 187.916 39.205 205.212Z" fill="#334094"/>
<path fill-rule="evenodd" clip-rule="evenodd" d="M192.56 315.521H197.556C268.277 314.368 328.62 268.63 350.912 205.212H38.8198C61.4965 268.63 121.84 314.368 192.56 315.521Z" fill="#D61F26"/>
</svg>
