<svg width="64" height="64" viewBox="0 0 64 64" fill="none" xmlns="http://www.w3.org/2000/svg">
<circle opacity="0.2" cx="32" cy="32" r="31.5" stroke="#00B4A4"/>
<circle opacity="0.4" cx="32.0008" cy="31.9997" r="24.3889" stroke="#00B4A4"/>
<g clip-path="url(#clip0_830_18707)">
<path d="M21.044 19.7682L32 17.3335L42.956 19.7682C43.2521 19.834 43.5169 19.9988 43.7067 20.2354C43.8965 20.472 43.9999 20.7662 44 21.0695V34.3855C43.9999 35.7025 43.6747 36.9991 43.0532 38.1602C42.4317 39.3213 41.5332 40.311 40.4373 41.0415L32 46.6668L23.5627 41.0415C22.467 40.3111 21.5686 39.3216 20.9471 38.1608C20.3256 36.9999 20.0003 35.7036 20 34.3868V21.0695C20.0001 20.7662 20.1035 20.472 20.2933 20.2354C20.4831 19.9988 20.7479 19.834 21.044 19.7682ZM22.6667 22.1388V34.3855C22.6667 35.2634 22.8834 36.1278 23.2977 36.9019C23.7119 37.676 24.3109 38.3358 25.0413 38.8228L32 43.4628L38.9587 38.8228C39.6889 38.3359 40.2878 37.6763 40.702 36.9025C41.1162 36.1286 41.3331 35.2645 41.3333 34.3868V22.1388L32 20.0668L22.6667 22.1388Z" fill="#00B4A4"/>
</g>
<defs>
<clipPath id="clip0_830_18707">
<rect width="32" height="32" fill="white" transform="translate(16 16)"/>
</clipPath>
</defs>
</svg>
