<svg width="40" height="40" viewBox="0 0 40 40" fill="none" xmlns="http://www.w3.org/2000/svg">
<rect width="40" height="40" rx="3" fill="white"/>
<rect x="0.5" y="0.5" width="39" height="39" rx="2.5" stroke="#201F23" stroke-opacity="0.1"/>
<path d="M27 13.496L24.6273 26.4172C24.6273 26.4172 24.2953 27.313 23.3833 26.8834L17.9089 22.3492L17.8835 22.3358C18.623 21.6186 24.3572 16.0493 24.6078 15.7968C24.9957 15.4058 24.7549 15.1731 24.3044 15.4684L15.8343 21.2789L12.5666 20.0912C12.5666 20.0912 12.0523 19.8936 12.0028 19.464C11.9527 19.0336 12.5835 18.8009 12.5835 18.8009L25.9051 13.1556C25.9051 13.1556 27 12.6359 27 13.496Z" fill="#201F23"/>
</svg>
