<svg width="64" height="64" viewBox="0 0 64 64" fill="none" xmlns="http://www.w3.org/2000/svg">
<circle opacity="0.2" cx="32" cy="32" r="31.5" stroke="#00B4A4"/>
<circle opacity="0.4" cx="32.0002" cy="32" r="24.3889" stroke="#00B4A4"/>
<g clip-path="url(#clip0_1661_8006)">
<path d="M31.9993 45.3334C24.6353 45.3334 18.666 39.3641 18.666 32.0001C18.666 24.6361 24.6353 18.6667 31.9993 18.6667C39.3633 18.6667 45.3327 24.6361 45.3327 32.0001C45.3327 39.3641 39.3633 45.3334 31.9993 45.3334ZM31.9993 42.6667C34.8283 42.6667 37.5414 41.5429 39.5418 39.5426C41.5422 37.5422 42.666 34.8291 42.666 32.0001C42.666 29.1711 41.5422 26.458 39.5418 24.4576C37.5414 22.4572 34.8283 21.3334 31.9993 21.3334C29.1704 21.3334 26.4573 22.4572 24.4569 24.4576C22.4565 26.458 21.3327 29.1711 21.3327 32.0001C21.3327 34.8291 22.4565 37.5422 24.4569 39.5426C26.4573 41.5429 29.1704 42.6667 31.9993 42.6667ZM33.3327 32.0001H38.666V34.6667H30.666V25.3334H33.3327V32.0001Z" fill="#00B4A4"/>
</g>
<defs>
<clipPath id="clip0_1661_8006">
<rect width="32" height="32" fill="white" transform="translate(16 16)"/>
</clipPath>
</defs>
</svg>
