<svg width="40" height="40" viewBox="0 0 40 40" fill="none" xmlns="http://www.w3.org/2000/svg">
<rect width="40" height="40" rx="3" fill="white"/>
<rect x="0.5" y="0.5" width="39" height="39" rx="2.5" stroke="#201F23" stroke-opacity="0.1"/>
<path d="M20.7146 25C15.248 25 12.1299 21.2462 12 15H14.7383C14.8282 19.5846 16.847 21.5265 18.446 21.9269V15H21.0244V18.954C22.6034 18.7838 24.2623 16.982 24.822 15H27.4004C27.1895 16.0279 26.7691 17.0012 26.1655 17.8589C25.562 18.7167 24.7882 19.4405 23.8926 19.985C24.8923 20.4825 25.7753 21.1868 26.4833 22.0512C27.1913 22.9157 27.7082 23.9207 28 25H25.1618C24.8999 24.0626 24.3676 23.2234 23.6316 22.5877C22.8956 21.952 21.9886 21.5481 21.0244 21.4264V25H20.7146Z" fill="#201F23"/>
</svg>
