<svg width="40" height="40" viewBox="0 0 40 40" fill="none" xmlns="http://www.w3.org/2000/svg">
<rect width="40" height="40" rx="3" fill="white"/>
<rect x="0.5" y="0.5" width="39" height="39" rx="2.5" stroke="#201F23" stroke-opacity="0.1"/>
<path d="M24.9512 15.0417C23.6341 13.7292 21.878 13 20.0244 13C16.1707 13 13.0488 16.1111 13.0488 19.9514C13.0488 21.1667 13.3902 22.3819 13.9756 23.4028L13 27L16.7073 26.0278C17.7317 26.5625 18.8537 26.8542 20.0244 26.8542C23.878 26.8542 27 23.7431 27 19.9028C26.9512 18.1042 26.2683 16.3542 24.9512 15.0417ZM23.3902 22.4306C23.2439 22.8194 22.561 23.2083 22.2195 23.2569C21.9268 23.3056 21.5366 23.3056 21.1463 23.2083C20.9024 23.1111 20.561 23.0139 20.1707 22.8194C18.4146 22.0903 17.2927 20.3403 17.1951 20.1944C17.0976 20.0972 16.4634 19.2708 16.4634 18.3958C16.4634 17.5208 16.9024 17.1319 17.0488 16.9375C17.1951 16.7431 17.3902 16.7431 17.5366 16.7431C17.6341 16.7431 17.7805 16.7431 17.878 16.7431C17.9756 16.7431 18.122 16.6944 18.2683 17.0347C18.4146 17.375 18.7561 18.25 18.8049 18.2986C18.8537 18.3958 18.8537 18.4931 18.8049 18.5903C18.7561 18.6875 18.7073 18.7847 18.6098 18.8819C18.5122 18.9792 18.4146 19.125 18.3659 19.1736C18.2683 19.2708 18.1707 19.3681 18.2683 19.5139C18.3659 19.7083 18.7073 20.2431 19.2439 20.7292C19.9268 21.3125 20.4634 21.5069 20.6585 21.6042C20.8537 21.7014 20.9512 21.6528 21.0488 21.5556C21.1463 21.4583 21.4878 21.0694 21.5854 20.875C21.6829 20.6806 21.8293 20.7292 21.9756 20.7778C22.122 20.8264 23 21.2639 23.1463 21.3611C23.3415 21.4583 23.439 21.5069 23.4878 21.5556C23.5366 21.7014 23.5366 22.0417 23.3902 22.4306Z" fill="#201F23"/>
</svg>
