<svg width="64" height="64" viewBox="0 0 64 64" fill="none" xmlns="http://www.w3.org/2000/svg">
<circle opacity="0.2" cx="32" cy="32" r="31.5" stroke="#00B4A4"/>
<circle opacity="0.4" cx="31.8889" cy="31.8889" r="24.3889" stroke="#00B4A4"/>
<g clip-path="url(#clip0_830_18271)">
<path d="M38.6667 42.6667H25.3334V44C25.3334 44.3536 25.1929 44.6928 24.9428 44.9428C24.6928 45.1929 24.3536 45.3333 24 45.3333H21.3334C20.9797 45.3333 20.6406 45.1929 20.3905 44.9428C20.1405 44.6928 20 44.3536 20 44V32H18.6667V26.6667H20V22.6667C20 21.9594 20.281 21.2811 20.7811 20.781C21.2812 20.281 21.9594 20 22.6667 20H41.3334C42.0406 20 42.7189 20.281 43.219 20.781C43.7191 21.2811 44 21.9594 44 22.6667V26.6667H45.3334V32H44V44C44 44.3536 43.8595 44.6928 43.6095 44.9428C43.3594 45.1929 43.0203 45.3333 42.6667 45.3333H40C39.6464 45.3333 39.3073 45.1929 39.0572 44.9428C38.8072 44.6928 38.6667 44.3536 38.6667 44V42.6667ZM22.6667 22.6667V30.6667H41.3334V22.6667H22.6667ZM41.3334 33.3333H22.6667V40H41.3334V33.3333ZM26 38.6667C25.4696 38.6667 24.9609 38.456 24.5858 38.0809C24.2107 37.7058 24 37.1971 24 36.6667C24 36.1362 24.2107 35.6275 24.5858 35.2525C24.9609 34.8774 25.4696 34.6667 26 34.6667C26.5305 34.6667 27.0392 34.8774 27.4142 35.2525C27.7893 35.6275 28 36.1362 28 36.6667C28 37.1971 27.7893 37.7058 27.4142 38.0809C27.0392 38.456 26.5305 38.6667 26 38.6667ZM38 38.6667C37.4696 38.6667 36.9609 38.456 36.5858 38.0809C36.2107 37.7058 36 37.1971 36 36.6667C36 36.1362 36.2107 35.6275 36.5858 35.2525C36.9609 34.8774 37.4696 34.6667 38 34.6667C38.5305 34.6667 39.0392 34.8774 39.4142 35.2525C39.7893 35.6275 40 36.1362 40 36.6667C40 37.1971 39.7893 37.7058 39.4142 38.0809C39.0392 38.456 38.5305 38.6667 38 38.6667Z" fill="#00B4A4"/>
</g>
<defs>
<clipPath id="clip0_830_18271">
<rect width="32" height="32" fill="white" transform="translate(16 16)"/>
</clipPath>
</defs>
</svg>
