<svg width="64" height="64" viewBox="0 0 64 64" fill="none" xmlns="http://www.w3.org/2000/svg">
<circle opacity="0.2" cx="32" cy="32" r="31.5" stroke="#00B4A4"/>
<circle opacity="0.4" cx="32.001" cy="31.9999" r="24.3889" stroke="#00B4A4"/>
<g clip-path="url(#clip0_830_18227)">
<path d="M27.9533 40C27.7948 41.1123 27.2403 42.1302 26.3916 42.8666C25.5428 43.6029 24.4569 44.0083 23.3333 44.0083C22.2097 44.0083 21.1238 43.6029 20.2751 42.8666C19.4264 42.1302 18.8718 41.1123 18.7133 40H17.3333V24C17.3333 23.6463 17.4738 23.3072 17.7238 23.0572C17.9739 22.8071 18.313 22.6666 18.6666 22.6666H37.3333C37.6869 22.6666 38.0261 22.8071 38.2761 23.0572C38.5262 23.3072 38.6666 23.6463 38.6666 24V26.6666H42.6666L46.6666 32.0746V40H43.9533C43.7948 41.1123 43.2403 42.1302 42.3916 42.8666C41.5428 43.6029 40.4569 44.0083 39.3333 44.0083C38.2097 44.0083 37.1238 43.6029 36.2751 42.8666C35.4264 42.1302 34.8718 41.1123 34.7133 40H27.9533ZM36 25.3333H20V36.0666C20.5261 35.5296 21.1741 35.1275 21.889 34.8948C22.6039 34.662 23.3644 34.6054 24.1058 34.7298C24.8473 34.8542 25.5477 35.1559 26.1475 35.6092C26.7472 36.0625 27.2286 36.6539 27.5506 37.3333H35.116C35.34 36.8626 35.64 36.4346 36 36.0666V25.3333ZM38.6666 33.3333H44V32.9533L41.3226 29.3333H38.6666V33.3333ZM39.3333 41.3333C39.8639 41.3333 40.3728 41.1225 40.748 40.7473C41.1232 40.3721 41.334 39.8632 41.334 39.3326C41.334 38.802 41.1232 38.2931 40.748 37.9179C40.3728 37.5427 39.8639 37.332 39.3333 37.332C38.8027 37.332 38.2938 37.5427 37.9186 37.9179C37.5434 38.2931 37.3326 38.802 37.3326 39.3326C37.3326 39.8632 37.5434 40.3721 37.9186 40.7473C38.2938 41.1225 38.8027 41.3333 39.3333 41.3333ZM25.3333 39.3333C25.3333 39.0707 25.2816 38.8106 25.1811 38.5679C25.0806 38.3253 24.9332 38.1048 24.7475 37.9191C24.5618 37.7334 24.3413 37.586 24.0987 37.4855C23.856 37.385 23.596 37.3333 23.3333 37.3333C23.0707 37.3333 22.8106 37.385 22.5679 37.4855C22.3253 37.586 22.1048 37.7334 21.9191 37.9191C21.7334 38.1048 21.5861 38.3253 21.4856 38.5679C21.385 38.8106 21.3333 39.0707 21.3333 39.3333C21.3333 39.8637 21.544 40.3724 21.9191 40.7475C22.2942 41.1226 22.8029 41.3333 23.3333 41.3333C23.8637 41.3333 24.3725 41.1226 24.7475 40.7475C25.1226 40.3724 25.3333 39.8637 25.3333 39.3333Z" fill="#00B4A4"/>
</g>
<defs>
<clipPath id="clip0_830_18227">
<rect width="32" height="32" fill="white" transform="translate(16 16)"/>
</clipPath>
</defs>
</svg>
