<svg width="64" height="64" viewBox="0 0 64 64" fill="none" xmlns="http://www.w3.org/2000/svg">
<circle opacity="0.2" cx="32" cy="32" r="31.5" stroke="#00B4A4"/>
<circle opacity="0.4" cx="32.001" cy="31.9999" r="24.3889" stroke="#00B4A4"/>
<g clip-path="url(#clip0_830_18238)">
<path d="M41.3333 44.0001H22.6666C22.313 44.0001 21.9739 43.8596 21.7238 43.6095C21.4738 43.3595 21.3333 43.0203 21.3333 42.6667V30.6667H17.3333L31.1026 18.1494C31.3481 17.926 31.6681 17.8022 32 17.8022C32.3319 17.8022 32.6518 17.926 32.8973 18.1494L46.6666 30.6667H42.6666V42.6667C42.6666 43.0203 42.5262 43.3595 42.2761 43.6095C42.0261 43.8596 41.6869 44.0001 41.3333 44.0001ZM33.3333 41.3334H40V28.2094L32 20.9374L24 28.2094V41.3334H30.6666V33.3334H33.3333V41.3334Z" fill="#00B4A4"/>
</g>
<defs>
<clipPath id="clip0_830_18238">
<rect width="32" height="32" fill="white" transform="translate(16 16)"/>
</clipPath>
</defs>
</svg>
