<svg width="64" height="64" viewBox="0 0 64 64" fill="none" xmlns="http://www.w3.org/2000/svg">
<circle opacity="0.2" cx="32" cy="32" r="31.5" stroke="#00B4A4"/>
<circle opacity="0.4" cx="31.8889" cy="31.8889" r="24.3889" stroke="#00B4A4"/>
<g clip-path="url(#clip0_830_18293)">
<path d="M20 29.3333H18.6667V21.3373C18.6667 20.5987 19.2734 20 19.9894 20H44.0107C44.1857 19.9996 44.3591 20.0341 44.5207 20.1013C44.6823 20.1686 44.8289 20.2673 44.952 20.3918C45.0751 20.5162 45.1722 20.6639 45.2376 20.8263C45.3031 20.9886 45.3357 21.1623 45.3334 21.3373V29.3333H44V42.668C44.0005 42.8424 43.9667 43.0152 43.9005 43.1765C43.8342 43.3378 43.7368 43.4845 43.6139 43.6082C43.4909 43.7319 43.3448 43.8302 43.1839 43.8974C43.023 43.9646 42.8504 43.9995 42.676 44H21.324C21.1496 43.9995 20.977 43.9646 20.8161 43.8974C20.6552 43.8302 20.5091 43.7319 20.3862 43.6082C20.2632 43.4845 20.1658 43.3378 20.0996 43.1765C20.0333 43.0152 19.9995 42.8424 20 42.668V29.3333ZM41.3334 29.3333H22.6667V41.3333H41.3334V29.3333ZM21.3334 22.6667V26.6667H42.6667V22.6667H21.3334ZM28 32H36V34.6667H28V32Z" fill="#00B4A4"/>
</g>
<defs>
<clipPath id="clip0_830_18293">
<rect width="32" height="32" fill="white" transform="translate(16 16)"/>
</clipPath>
</defs>
</svg>
